<svg width="264" height="268" viewBox="0 0 264 268" fill="none" xmlns="http://www.w3.org/2000/svg">
<g filter="url(#filter0_di_1_1055)">
<rect x="12" y="12.52" width="240" height="512" rx="20" fill="url(#paint0_linear_1_1055)"/>
<rect x="33" y="38.52" width="104" height="18" rx="6" fill="#29292B"/>
<rect x="203" y="33.52" width="28" height="28" rx="14" fill="#29292B"/>
<rect x="127.5" y="96.02" width="87" height="17" rx="5.5" fill="#29292B" stroke="#505051"/>
<rect x="127" y="123.52" width="64" height="6" rx="3" fill="#29292B"/>
<rect x="127" y="135.52" width="48" height="6" rx="3" fill="#29292B"/>
<rect x="33.5" y="86.02" width="71" height="71" rx="11.5" fill="#29292B" stroke="#505051"/>
<rect x="33.5" y="86.02" width="71" height="71" rx="11.5" fill="#29292B" stroke="#505051"/>
<rect x="33.5" y="178.02" width="71" height="71" rx="11.5" fill="#29292B" stroke="#505051"/>
<rect x="127.5" y="188.02" width="87" height="17" rx="5.5" fill="#29292B" stroke="#505051"/>
<rect x="127" y="215.52" width="64" height="6" rx="3" fill="#29292B"/>
<rect x="127" y="227.52" width="48" height="6" rx="3" fill="#29292B"/>
<rect x="33.5" y="86.02" width="71" height="71" rx="11.5" fill="#29292B" stroke="#505051"/>
</g>
<defs>
<filter id="filter0_di_1_1055" x="0" y="0.52002" width="264" height="536" filterUnits="userSpaceOnUse" color-interpolation-filters="sRGB">
<feFlood flood-opacity="0" result="BackgroundImageFix"/>
<feColorMatrix in="SourceAlpha" type="matrix" values="0 0 0 0 0 0 0 0 0 0 0 0 0 0 0 0 0 0 127 0" result="hardAlpha"/>
<feMorphology radius="4" operator="erode" in="SourceAlpha" result="effect1_dropShadow_1_1055"/>
<feOffset/>
<feGaussianBlur stdDeviation="8"/>
<feComposite in2="hardAlpha" operator="out"/>
<feColorMatrix type="matrix" values="0 0 0 0 0 0 0 0 0 0 0 0 0 0 0 0 0 0 0.5 0"/>
<feBlend mode="normal" in2="BackgroundImageFix" result="effect1_dropShadow_1_1055"/>
<feBlend mode="normal" in="SourceGraphic" in2="effect1_dropShadow_1_1055" result="shape"/>
<feColorMatrix in="SourceAlpha" type="matrix" values="0 0 0 0 0 0 0 0 0 0 0 0 0 0 0 0 0 0 127 0" result="hardAlpha"/>
<feOffset dy="1"/>
<feGaussianBlur stdDeviation="1"/>
<feComposite in2="hardAlpha" operator="arithmetic" k2="-1" k3="1"/>
<feColorMatrix type="matrix" values="0 0 0 0 0.321569 0 0 0 0 0.317647 0 0 0 0 0.329412 0 0 0 1 0"/>
<feBlend mode="normal" in2="shape" result="effect2_innerShadow_1_1055"/>
</filter>
<linearGradient id="paint0_linear_1_1055" x1="12" y1="12.52" x2="86.8698" y2="547.624" gradientUnits="userSpaceOnUse">
<stop stop-color="#1F1E21"/>
<stop offset="0.62" stop-color="#131216"/>
</linearGradient>
</defs>
</svg>
