<svg width="390" height="427" viewBox="0 0 390 427" fill="none" xmlns="http://www.w3.org/2000/svg">
<mask id="path-1-inside-1_511_226" fill="white">
<path d="M0 15C0 6.71574 6.71573 0 15 0H375C383.284 0 390 6.71573 390 15V412C390 420.284 383.284 427 375 427H15C6.71574 427 0 420.284 0 412V15Z"/>
</mask>
<path d="M0 15C0 6.71574 6.71573 0 15 0H375C383.284 0 390 6.71573 390 15V412C390 420.284 383.284 427 375 427H15C6.71574 427 0 420.284 0 412V15Z" fill="#F4F4F4"/>
<path d="M0 0H390H0ZM390 412C390 420.837 382.837 428 374 428H16C7.16344 428 0 420.837 0 412C0 419.732 6.71573 426 15 426H375C383.284 426 390 419.732 390 412ZM0 427V0V427ZM390 0V427V0Z" fill="#BBBBBB" mask="url(#path-1-inside-1_511_226)"/>
<path d="M27.7763 120.192C27.1896 120.192 26.619 120.139 26.0643 120.032C25.5096 119.925 25.019 119.744 24.5923 119.488C24.1656 119.232 23.8296 118.896 23.5843 118.48C23.339 118.064 23.2163 117.547 23.2163 116.928C23.2163 116.875 23.2163 116.827 23.2163 116.784C23.2163 116.731 23.2216 116.677 23.2323 116.624H24.4963C24.4963 116.667 24.491 116.725 24.4803 116.8C24.4803 116.875 24.4803 116.939 24.4803 116.992C24.4803 117.461 24.619 117.856 24.8963 118.176C25.1843 118.485 25.5683 118.72 26.0483 118.88C26.539 119.029 27.0883 119.104 27.6963 119.104C27.899 119.104 28.139 119.093 28.4163 119.072C28.7043 119.04 28.9923 118.987 29.2803 118.912C29.579 118.827 29.851 118.715 30.0963 118.576C30.3416 118.427 30.539 118.24 30.6883 118.016C30.8483 117.781 30.9283 117.493 30.9283 117.152C30.9283 116.757 30.8216 116.432 30.6083 116.176C30.395 115.92 30.1123 115.712 29.7603 115.552C29.419 115.381 29.0243 115.232 28.5763 115.104C28.1283 114.976 27.6696 114.853 27.2003 114.736C26.731 114.619 26.2723 114.485 25.8243 114.336C25.387 114.187 24.9923 114 24.6403 113.776C24.2883 113.552 24.0056 113.275 23.7923 112.944C23.5896 112.603 23.4883 112.187 23.4883 111.696C23.4883 111.269 23.5736 110.88 23.7443 110.528C23.915 110.176 24.1763 109.877 24.5283 109.632C24.8803 109.376 25.3283 109.179 25.8723 109.04C26.4163 108.901 27.0616 108.832 27.8083 108.832C28.3736 108.832 28.9016 108.891 29.3923 109.008C29.883 109.125 30.315 109.312 30.6883 109.568C31.0616 109.813 31.3496 110.128 31.5523 110.512C31.7656 110.885 31.8723 111.339 31.8723 111.872V112.064H30.6243V111.792C30.6243 111.397 30.5016 111.067 30.2563 110.8C30.011 110.523 29.6803 110.309 29.2643 110.16C28.859 110 28.395 109.92 27.8723 109.92C27.1576 109.92 26.571 109.995 26.1123 110.144C25.6536 110.283 25.3123 110.48 25.0883 110.736C24.8643 110.981 24.7523 111.259 24.7523 111.568C24.7523 111.931 24.859 112.235 25.0723 112.48C25.2856 112.715 25.5683 112.912 25.9203 113.072C26.2723 113.221 26.667 113.36 27.1043 113.488C27.5523 113.605 28.011 113.723 28.4803 113.84C28.9496 113.957 29.403 114.096 29.8403 114.256C30.2883 114.405 30.6883 114.597 31.0403 114.832C31.403 115.056 31.6856 115.339 31.8883 115.68C32.1016 116.021 32.2083 116.443 32.2083 116.944C32.2083 117.701 32.0163 118.32 31.6323 118.8C31.259 119.28 30.7416 119.632 30.0803 119.856C29.419 120.08 28.651 120.192 27.7763 120.192ZM38.9572 120.192C38.0399 120.192 37.2505 120.048 36.5892 119.76C35.9385 119.461 35.4372 118.987 35.0852 118.336C34.7332 117.685 34.5572 116.843 34.5572 115.808V109.024H35.8212V116.064C35.8212 117.077 36.0932 117.835 36.6372 118.336C37.1919 118.837 37.9652 119.088 38.9572 119.088C39.9705 119.088 40.7599 118.837 41.3252 118.336C41.9012 117.835 42.1892 117.077 42.1892 116.064V109.024H43.4372V115.808C43.4372 116.843 43.2559 117.685 42.8932 118.336C42.5412 118.987 42.0292 119.461 41.3572 119.76C40.6959 120.048 39.8959 120.192 38.9572 120.192ZM46.3388 120V109.024H47.5708L53.1868 116.608C53.2508 116.683 53.3255 116.784 53.4108 116.912C53.5068 117.04 53.5975 117.173 53.6828 117.312C53.7788 117.44 53.8588 117.557 53.9228 117.664H54.0028C54.0028 117.483 54.0028 117.307 54.0028 117.136C54.0028 116.955 54.0028 116.779 54.0028 116.608V109.024H55.2348V120H54.1308L48.4028 112.256C48.3281 112.149 48.2108 111.984 48.0508 111.76C47.8908 111.525 47.7521 111.328 47.6348 111.168H47.5708C47.5708 111.349 47.5708 111.531 47.5708 111.712C47.5708 111.883 47.5708 112.064 47.5708 112.256V120H46.3388Z" fill="black" fill-opacity="0.4"/>
<path d="M31.1903 172V171.568C31.1903 171.131 31.2756 170.731 31.4463 170.368C31.6276 169.995 31.8676 169.653 32.1663 169.344C32.4756 169.035 32.8169 168.736 33.1903 168.448C33.5636 168.16 33.9476 167.877 34.3423 167.6C34.9076 167.216 35.4196 166.837 35.8783 166.464C36.3476 166.08 36.7209 165.675 36.9983 165.248C37.2863 164.811 37.4303 164.325 37.4303 163.792C37.4303 163.397 37.3396 163.056 37.1583 162.768C36.9769 162.469 36.7103 162.24 36.3583 162.08C36.0169 161.909 35.5903 161.824 35.0783 161.824C34.4383 161.824 33.9316 161.936 33.5583 162.16C33.1849 162.384 32.9129 162.672 32.7423 163.024C32.5823 163.376 32.5023 163.749 32.5023 164.144V164.8H31.3663C31.3556 164.747 31.3449 164.667 31.3343 164.56C31.3236 164.443 31.3183 164.309 31.3183 164.16C31.3183 163.371 31.4943 162.736 31.8463 162.256C32.1983 161.765 32.6676 161.408 33.2543 161.184C33.8409 160.949 34.4756 160.832 35.1583 160.832C35.7023 160.832 36.1876 160.901 36.6143 161.04C37.0409 161.179 37.4036 161.381 37.7023 161.648C38.0009 161.915 38.2303 162.235 38.3903 162.608C38.5503 162.981 38.6302 163.387 38.6302 163.824C38.6302 164.336 38.5396 164.8 38.3583 165.216C38.1876 165.621 37.9423 166 37.6223 166.352C37.3023 166.704 36.9289 167.045 36.5023 167.376C36.0756 167.707 35.6169 168.037 35.1263 168.368C34.7423 168.624 34.3636 168.896 33.9903 169.184C33.6169 169.472 33.2969 169.765 33.0303 170.064C32.7636 170.352 32.6036 170.635 32.5503 170.912H38.6943V172H31.1903ZM44.0139 172.192C43.1179 172.192 42.3872 172.053 41.8219 171.776C41.2565 171.488 40.8459 171.104 40.5899 170.624C40.3339 170.133 40.2059 169.595 40.2059 169.008C40.2059 168.411 40.3552 167.883 40.6539 167.424C40.9632 166.965 41.4432 166.613 42.0939 166.368C41.5819 166.101 41.1872 165.749 40.9099 165.312C40.6325 164.864 40.4939 164.373 40.4939 163.84C40.4939 163.275 40.6272 162.768 40.8939 162.32C41.1605 161.861 41.5552 161.499 42.0779 161.232C42.6005 160.965 43.2459 160.832 44.0139 160.832C44.7819 160.832 45.4219 160.965 45.9339 161.232C46.4565 161.499 46.8459 161.861 47.1019 162.32C47.3685 162.768 47.5019 163.275 47.5019 163.84C47.5019 164.373 47.3632 164.864 47.0859 165.312C46.8192 165.749 46.4245 166.101 45.9019 166.368C46.5632 166.613 47.0432 166.965 47.3419 167.424C47.6512 167.883 47.8059 168.411 47.8059 169.008C47.8059 169.595 47.6779 170.133 47.4219 170.624C47.1659 171.104 46.7552 171.488 46.1899 171.776C45.6352 172.053 44.9099 172.192 44.0139 172.192ZM44.0139 171.216C44.8672 171.216 45.5072 171.024 45.9339 170.64C46.3712 170.245 46.5899 169.712 46.5899 169.04C46.5899 168.379 46.3712 167.851 45.9339 167.456C45.5072 167.061 44.8672 166.864 44.0139 166.864C43.1499 166.864 42.4992 167.061 42.0619 167.456C41.6245 167.851 41.4059 168.379 41.4059 169.04C41.4059 169.712 41.6245 170.245 42.0619 170.64C42.4992 171.024 43.1499 171.216 44.0139 171.216ZM44.0139 165.904C44.7285 165.904 45.2885 165.723 45.6939 165.36C46.1099 164.997 46.3179 164.491 46.3179 163.84C46.3179 163.189 46.1099 162.688 45.6939 162.336C45.2885 161.984 44.7285 161.808 44.0139 161.808C43.2885 161.808 42.7179 161.984 42.3019 162.336C41.8965 162.688 41.6939 163.189 41.6939 163.84C41.6939 164.491 41.8965 164.997 42.3019 165.36C42.7179 165.723 43.2885 165.904 44.0139 165.904Z" fill="black" fill-opacity="0.4"/>
<path d="M40.8046 224V221.2H35.5726V220.208C36.0313 219.408 36.4473 218.613 36.8206 217.824C37.194 217.035 37.5246 216.229 37.8126 215.408C38.1006 214.576 38.3353 213.717 38.5166 212.832H39.7486C39.61 213.429 39.4393 214.037 39.2366 214.656C39.0446 215.275 38.826 215.877 38.5806 216.464C38.346 217.051 38.1113 217.595 37.8766 218.096C37.642 218.597 37.4233 219.035 37.2206 219.408C37.018 219.771 36.8526 220.037 36.7246 220.208H40.8046V216.384C40.858 216.235 40.9113 216.075 40.9646 215.904C41.018 215.733 41.066 215.563 41.1086 215.392C41.162 215.211 41.21 215.045 41.2526 214.896C41.2953 214.747 41.3326 214.603 41.3646 214.464H41.9566V220.208H43.4606V221.2H41.9566V224H40.8046Z" fill="black"/>
<path d="M31.8945 276V274.992H34.7425V267.056H31.8945V266.304C32.3212 266.283 32.7425 266.235 33.1585 266.16C33.5745 266.085 33.9745 265.957 34.3585 265.776C34.7425 265.595 35.0945 265.328 35.4145 264.976H35.8945V274.992H38.5825V276H31.8945ZM39.832 276V274.992H42.68V267.056H39.832V266.304C40.2587 266.283 40.68 266.235 41.096 266.16C41.512 266.085 41.912 265.957 42.296 265.776C42.68 265.595 43.032 265.328 43.352 264.976H43.832V274.992H46.52V276H39.832Z" fill="black"/>
<path d="M31.2773 328V326.992H34.1253V319.056H31.2773V318.304C31.704 318.283 32.1253 318.235 32.5413 318.16C32.9573 318.085 33.3573 317.957 33.7413 317.776C34.1253 317.595 34.4773 317.328 34.7973 316.976H35.2773V326.992H37.9653V328H31.2773ZM42.9748 328.192C42.0788 328.192 41.3481 328.053 40.7828 327.776C40.2175 327.488 39.8068 327.104 39.5508 326.624C39.2948 326.133 39.1668 325.595 39.1668 325.008C39.1668 324.411 39.3161 323.883 39.6148 323.424C39.9241 322.965 40.4041 322.613 41.0548 322.368C40.5428 322.101 40.1481 321.749 39.8708 321.312C39.5935 320.864 39.4548 320.373 39.4548 319.84C39.4548 319.275 39.5881 318.768 39.8548 318.32C40.1215 317.861 40.5161 317.499 41.0388 317.232C41.5615 316.965 42.2068 316.832 42.9748 316.832C43.7428 316.832 44.3828 316.965 44.8948 317.232C45.4175 317.499 45.8068 317.861 46.0628 318.32C46.3295 318.768 46.4628 319.275 46.4628 319.84C46.4628 320.373 46.3241 320.864 46.0468 321.312C45.7801 321.749 45.3855 322.101 44.8628 322.368C45.5241 322.613 46.0041 322.965 46.3028 323.424C46.6121 323.883 46.7668 324.411 46.7668 325.008C46.7668 325.595 46.6388 326.133 46.3828 326.624C46.1268 327.104 45.7161 327.488 45.1508 327.776C44.5961 328.053 43.8708 328.192 42.9748 328.192ZM42.9748 327.216C43.8281 327.216 44.4681 327.024 44.8948 326.64C45.3321 326.245 45.5508 325.712 45.5508 325.04C45.5508 324.379 45.3321 323.851 44.8948 323.456C44.4681 323.061 43.8281 322.864 42.9748 322.864C42.1108 322.864 41.4601 323.061 41.0228 323.456C40.5855 323.851 40.3668 324.379 40.3668 325.04C40.3668 325.712 40.5855 326.245 41.0228 326.64C41.4601 327.024 42.1108 327.216 42.9748 327.216ZM42.9748 321.904C43.6895 321.904 44.2495 321.723 44.6548 321.36C45.0708 320.997 45.2788 320.491 45.2788 319.84C45.2788 319.189 45.0708 318.688 44.6548 318.336C44.2495 317.984 43.6895 317.808 42.9748 317.808C42.2495 317.808 41.6788 317.984 41.2628 318.336C40.8575 318.688 40.6548 319.189 40.6548 319.84C40.6548 320.491 40.8575 320.997 41.2628 321.36C41.6788 321.723 42.2495 321.904 42.9748 321.904Z" fill="black"/>
<path d="M31.2137 380V379.568C31.2137 379.131 31.299 378.731 31.4697 378.368C31.651 377.995 31.891 377.653 32.1897 377.344C32.499 377.035 32.8404 376.736 33.2137 376.448C33.587 376.16 33.971 375.877 34.3657 375.6C34.931 375.216 35.443 374.837 35.9017 374.464C36.371 374.08 36.7444 373.675 37.0217 373.248C37.3097 372.811 37.4537 372.325 37.4537 371.792C37.4537 371.397 37.363 371.056 37.1817 370.768C37.0004 370.469 36.7337 370.24 36.3817 370.08C36.0404 369.909 35.6137 369.824 35.1017 369.824C34.4617 369.824 33.955 369.936 33.5817 370.16C33.2084 370.384 32.9364 370.672 32.7657 371.024C32.6057 371.376 32.5257 371.749 32.5257 372.144V372.8H31.3897C31.379 372.747 31.3684 372.667 31.3577 372.56C31.347 372.443 31.3417 372.309 31.3417 372.16C31.3417 371.371 31.5177 370.736 31.8697 370.256C32.2217 369.765 32.691 369.408 33.2777 369.184C33.8644 368.949 34.499 368.832 35.1817 368.832C35.7257 368.832 36.211 368.901 36.6377 369.04C37.0644 369.179 37.427 369.381 37.7257 369.648C38.0244 369.915 38.2537 370.235 38.4137 370.608C38.5737 370.981 38.6537 371.387 38.6537 371.824C38.6537 372.336 38.563 372.8 38.3817 373.216C38.211 373.621 37.9657 374 37.6457 374.352C37.3257 374.704 36.9524 375.045 36.5257 375.376C36.099 375.707 35.6404 376.037 35.1497 376.368C34.7657 376.624 34.387 376.896 34.0137 377.184C33.6404 377.472 33.3204 377.765 33.0537 378.064C32.787 378.352 32.627 378.635 32.5737 378.912H38.7177V380H31.2137ZM44.1173 380.192C43.3493 380.192 42.672 380.048 42.0853 379.76C41.5093 379.472 41.0613 379.061 40.7413 378.528C40.4213 377.984 40.2613 377.339 40.2613 376.592H41.4293C41.4293 377.136 41.552 377.605 41.7973 378C42.0426 378.395 42.368 378.699 42.7733 378.912C43.1786 379.115 43.6266 379.216 44.1173 379.216C44.6186 379.216 45.0613 379.115 45.4453 378.912C45.84 378.709 46.144 378.405 46.3573 378C46.5813 377.584 46.6933 377.056 46.6933 376.416C46.6933 375.851 46.592 375.381 46.3893 375.008C46.1973 374.624 45.92 374.341 45.5573 374.16C45.1946 373.979 44.7626 373.888 44.2613 373.888C43.92 373.888 43.584 373.941 43.2533 374.048C42.9333 374.155 42.64 374.315 42.3733 374.528C42.1173 374.731 41.9093 374.987 41.7493 375.296L40.6613 375.104L41.1253 369.024H47.3173V370.112H42.1493L41.8613 373.872C42.0533 373.691 42.272 373.525 42.5173 373.376C42.7626 373.227 43.0453 373.109 43.3653 373.024C43.6853 372.928 44.0426 372.88 44.4373 372.88C45.088 372.88 45.6693 373.003 46.1813 373.248C46.704 373.493 47.12 373.872 47.4293 374.384C47.7386 374.885 47.8933 375.541 47.8933 376.352C47.8933 377.152 47.7386 377.84 47.4293 378.416C47.1306 378.992 46.6986 379.435 46.1333 379.744C45.5786 380.043 44.9066 380.192 44.1173 380.192Z" fill="black"/>
<path d="M83.1981 172V171.568C83.1981 171.131 83.2834 170.731 83.4541 170.368C83.6354 169.995 83.8754 169.653 84.1741 169.344C84.4834 169.035 84.8247 168.736 85.1981 168.448C85.5714 168.16 85.9554 167.877 86.3501 167.6C86.9154 167.216 87.4274 166.837 87.8861 166.464C88.3554 166.08 88.7287 165.675 89.0061 165.248C89.2941 164.811 89.4381 164.325 89.4381 163.792C89.4381 163.397 89.3474 163.056 89.1661 162.768C88.9847 162.469 88.7181 162.24 88.3661 162.08C88.0247 161.909 87.5981 161.824 87.0861 161.824C86.4461 161.824 85.9394 161.936 85.5661 162.16C85.1927 162.384 84.9207 162.672 84.7501 163.024C84.5901 163.376 84.5101 163.749 84.5101 164.144V164.8H83.3741C83.3634 164.747 83.3527 164.667 83.3421 164.56C83.3314 164.443 83.3261 164.309 83.3261 164.16C83.3261 163.371 83.5021 162.736 83.8541 162.256C84.2061 161.765 84.6754 161.408 85.2621 161.184C85.8487 160.949 86.4834 160.832 87.1661 160.832C87.7101 160.832 88.1954 160.901 88.6221 161.04C89.0487 161.179 89.4114 161.381 89.7101 161.648C90.0087 161.915 90.2381 162.235 90.3981 162.608C90.5581 162.981 90.6381 163.387 90.6381 163.824C90.6381 164.336 90.5474 164.8 90.3661 165.216C90.1954 165.621 89.9501 166 89.6301 166.352C89.3101 166.704 88.9367 167.045 88.5101 167.376C88.0834 167.707 87.6247 168.037 87.1341 168.368C86.7501 168.624 86.3714 168.896 85.9981 169.184C85.6247 169.472 85.3047 169.765 85.0381 170.064C84.7714 170.352 84.6114 170.635 84.5581 170.912H90.7021V172H83.1981ZM95.7977 172.192C95.0297 172.192 94.4057 172.048 93.9257 171.76C93.4457 171.461 93.0937 171.056 92.8697 170.544C92.6457 170.032 92.5337 169.456 92.5337 168.816H93.7177C93.7177 169.36 93.7977 169.808 93.9577 170.16C94.1284 170.512 94.3737 170.779 94.6937 170.96C95.0137 171.131 95.4084 171.216 95.8777 171.216C96.5924 171.216 97.1417 171.035 97.5257 170.672C97.9204 170.299 98.1977 169.771 98.3577 169.088C98.5177 168.395 98.603 167.563 98.6137 166.592C98.4324 166.912 98.187 167.189 97.8777 167.424C97.5684 167.648 97.2217 167.819 96.8377 167.936C96.4644 168.053 96.0697 168.112 95.6537 168.112C94.8537 168.112 94.1924 167.957 93.6697 167.648C93.1577 167.328 92.7737 166.896 92.5177 166.352C92.2617 165.808 92.1337 165.2 92.1337 164.528C92.1337 163.781 92.2937 163.136 92.6137 162.592C92.9337 162.037 93.371 161.605 93.9257 161.296C94.4804 160.987 95.1044 160.832 95.7977 160.832C96.427 160.832 96.987 160.923 97.4777 161.104C97.979 161.275 98.4004 161.568 98.7417 161.984C99.0937 162.389 99.3604 162.939 99.5417 163.632C99.723 164.315 99.8137 165.168 99.8137 166.192C99.8137 167.301 99.723 168.24 99.5417 169.008C99.3604 169.776 99.099 170.395 98.7577 170.864C98.4164 171.333 97.995 171.675 97.4937 171.888C97.003 172.091 96.4377 172.192 95.7977 172.192ZM95.8617 167.136C96.4377 167.136 96.9177 167.013 97.3017 166.768C97.6857 166.523 97.9737 166.197 98.1657 165.792C98.3684 165.376 98.4697 164.928 98.4697 164.448C98.4697 163.968 98.3737 163.531 98.1817 163.136C98.0004 162.731 97.7177 162.411 97.3337 162.176C96.9604 161.931 96.4857 161.808 95.9097 161.808C95.323 161.808 94.8377 161.936 94.4537 162.192C94.0804 162.437 93.7977 162.768 93.6057 163.184C93.4244 163.6 93.3337 164.053 93.3337 164.544C93.3337 165.013 93.4244 165.445 93.6057 165.84C93.787 166.224 94.059 166.539 94.4217 166.784C94.795 167.019 95.275 167.136 95.8617 167.136Z" fill="black" fill-opacity="0.4"/>
<path d="M91.1095 224.192C90.3415 224.192 89.6642 224.048 89.0775 223.76C88.5015 223.472 88.0535 223.061 87.7335 222.528C87.4135 221.984 87.2535 221.339 87.2535 220.592H88.4215C88.4215 221.136 88.5442 221.605 88.7895 222C89.0348 222.395 89.3602 222.699 89.7655 222.912C90.1708 223.115 90.6188 223.216 91.1095 223.216C91.6108 223.216 92.0535 223.115 92.4375 222.912C92.8322 222.709 93.1362 222.405 93.3495 222C93.5735 221.584 93.6855 221.056 93.6855 220.416C93.6855 219.851 93.5842 219.381 93.3815 219.008C93.1895 218.624 92.9122 218.341 92.5495 218.16C92.1868 217.979 91.7548 217.888 91.2535 217.888C90.9122 217.888 90.5762 217.941 90.2455 218.048C89.9255 218.155 89.6322 218.315 89.3655 218.528C89.1095 218.731 88.9015 218.987 88.7415 219.296L87.6535 219.104L88.1175 213.024H94.3095V214.112H89.1415L88.8535 217.872C89.0455 217.691 89.2642 217.525 89.5095 217.376C89.7548 217.227 90.0375 217.109 90.3575 217.024C90.6775 216.928 91.0348 216.88 91.4295 216.88C92.0802 216.88 92.6615 217.003 93.1735 217.248C93.6962 217.493 94.1122 217.872 94.4215 218.384C94.7308 218.885 94.8855 219.541 94.8855 220.352C94.8855 221.152 94.7308 221.84 94.4215 222.416C94.1228 222.992 93.6908 223.435 93.1255 223.744C92.5708 224.043 91.8988 224.192 91.1095 224.192Z" fill="black"/>
<path d="M83.8554 276V274.992H86.7034V267.056H83.8554V266.304C84.2821 266.283 84.7034 266.235 85.1194 266.16C85.5354 266.085 85.9354 265.957 86.3194 265.776C86.7034 265.595 87.0554 265.328 87.3754 264.976H87.8554V274.992H90.5434V276H83.8554ZM91.7449 276V275.568C91.7449 275.131 91.8303 274.731 92.0009 274.368C92.1823 273.995 92.4223 273.653 92.7209 273.344C93.0303 273.035 93.3716 272.736 93.7449 272.448C94.1183 272.16 94.5023 271.877 94.8969 271.6C95.4623 271.216 95.9743 270.837 96.4329 270.464C96.9023 270.08 97.2756 269.675 97.5529 269.248C97.8409 268.811 97.9849 268.325 97.9849 267.792C97.9849 267.397 97.8943 267.056 97.7129 266.768C97.5316 266.469 97.2649 266.24 96.9129 266.08C96.5716 265.909 96.1449 265.824 95.6329 265.824C94.9929 265.824 94.4863 265.936 94.1129 266.16C93.7396 266.384 93.4676 266.672 93.2969 267.024C93.1369 267.376 93.0569 267.749 93.0569 268.144V268.8H91.9209C91.9103 268.747 91.8996 268.667 91.8889 268.56C91.8783 268.443 91.8729 268.309 91.8729 268.16C91.8729 267.371 92.0489 266.736 92.4009 266.256C92.7529 265.765 93.2223 265.408 93.8089 265.184C94.3956 264.949 95.0303 264.832 95.7129 264.832C96.2569 264.832 96.7423 264.901 97.1689 265.04C97.5956 265.179 97.9583 265.381 98.2569 265.648C98.5556 265.915 98.7849 266.235 98.9449 266.608C99.1049 266.981 99.1849 267.387 99.1849 267.824C99.1849 268.336 99.0943 268.8 98.9129 269.216C98.7423 269.621 98.4969 270 98.1769 270.352C97.8569 270.704 97.4836 271.045 97.0569 271.376C96.6303 271.707 96.1716 272.037 95.6809 272.368C95.2969 272.624 94.9183 272.896 94.5449 273.184C94.1716 273.472 93.8516 273.765 93.5849 274.064C93.3183 274.352 93.1583 274.635 93.1049 274.912H99.2489V276H91.7449Z" fill="black"/>
<path d="M83.2851 328V326.992H86.1331V319.056H83.2851V318.304C83.7118 318.283 84.1331 318.235 84.5491 318.16C84.9651 318.085 85.3651 317.957 85.7491 317.776C86.1331 317.595 86.4851 317.328 86.8051 316.976H87.2851V326.992H89.9731V328H83.2851ZM94.7586 328.192C93.9906 328.192 93.3666 328.048 92.8866 327.76C92.4066 327.461 92.0546 327.056 91.8306 326.544C91.6066 326.032 91.4946 325.456 91.4946 324.816H92.6786C92.6786 325.36 92.7586 325.808 92.9186 326.16C93.0893 326.512 93.3346 326.779 93.6546 326.96C93.9746 327.131 94.3693 327.216 94.8386 327.216C95.5533 327.216 96.1026 327.035 96.4866 326.672C96.8813 326.299 97.1586 325.771 97.3186 325.088C97.4786 324.395 97.564 323.563 97.5746 322.592C97.3933 322.912 97.148 323.189 96.8386 323.424C96.5293 323.648 96.1826 323.819 95.7986 323.936C95.4253 324.053 95.0306 324.112 94.6146 324.112C93.8146 324.112 93.1533 323.957 92.6306 323.648C92.1186 323.328 91.7346 322.896 91.4786 322.352C91.2226 321.808 91.0946 321.2 91.0946 320.528C91.0946 319.781 91.2546 319.136 91.5746 318.592C91.8946 318.037 92.332 317.605 92.8866 317.296C93.4413 316.987 94.0653 316.832 94.7586 316.832C95.388 316.832 95.948 316.923 96.4386 317.104C96.94 317.275 97.3613 317.568 97.7026 317.984C98.0546 318.389 98.3213 318.939 98.5026 319.632C98.684 320.315 98.7746 321.168 98.7746 322.192C98.7746 323.301 98.684 324.24 98.5026 325.008C98.3213 325.776 98.06 326.395 97.7186 326.864C97.3773 327.333 96.956 327.675 96.4546 327.888C95.964 328.091 95.3986 328.192 94.7586 328.192ZM94.8226 323.136C95.3986 323.136 95.8786 323.013 96.2626 322.768C96.6466 322.523 96.9346 322.197 97.1266 321.792C97.3293 321.376 97.4306 320.928 97.4306 320.448C97.4306 319.968 97.3346 319.531 97.1426 319.136C96.9613 318.731 96.6786 318.411 96.2946 318.176C95.9213 317.931 95.4466 317.808 94.8706 317.808C94.284 317.808 93.7986 317.936 93.4146 318.192C93.0413 318.437 92.7586 318.768 92.5666 319.184C92.3853 319.6 92.2946 320.053 92.2946 320.544C92.2946 321.013 92.3853 321.445 92.5666 321.84C92.748 322.224 93.02 322.539 93.3826 322.784C93.756 323.019 94.236 323.136 94.8226 323.136Z" fill="black"/>
<path d="M83.1981 380V379.568C83.1981 379.131 83.2834 378.731 83.4541 378.368C83.6354 377.995 83.8754 377.653 84.1741 377.344C84.4834 377.035 84.8247 376.736 85.1981 376.448C85.5714 376.16 85.9554 375.877 86.3501 375.6C86.9154 375.216 87.4274 374.837 87.8861 374.464C88.3554 374.08 88.7287 373.675 89.0061 373.248C89.2941 372.811 89.4381 372.325 89.4381 371.792C89.4381 371.397 89.3474 371.056 89.1661 370.768C88.9847 370.469 88.7181 370.24 88.3661 370.08C88.0247 369.909 87.5981 369.824 87.0861 369.824C86.4461 369.824 85.9394 369.936 85.5661 370.16C85.1927 370.384 84.9207 370.672 84.7501 371.024C84.5901 371.376 84.5101 371.749 84.5101 372.144V372.8H83.3741C83.3634 372.747 83.3527 372.667 83.3421 372.56C83.3314 372.443 83.3261 372.309 83.3261 372.16C83.3261 371.371 83.5021 370.736 83.8541 370.256C84.2061 369.765 84.6754 369.408 85.2621 369.184C85.8487 368.949 86.4834 368.832 87.1661 368.832C87.7101 368.832 88.1954 368.901 88.6221 369.04C89.0487 369.179 89.4114 369.381 89.7101 369.648C90.0087 369.915 90.2381 370.235 90.3981 370.608C90.5581 370.981 90.6381 371.387 90.6381 371.824C90.6381 372.336 90.5474 372.8 90.3661 373.216C90.1954 373.621 89.9501 374 89.6301 374.352C89.3101 374.704 88.9367 375.045 88.5101 375.376C88.0834 375.707 87.6247 376.037 87.1341 376.368C86.7501 376.624 86.3714 376.896 85.9981 377.184C85.6247 377.472 85.3047 377.765 85.0381 378.064C84.7714 378.352 84.6114 378.635 84.5581 378.912H90.7021V380H83.1981ZM96.2137 380.192C95.5844 380.192 95.019 380.107 94.5177 379.936C94.027 379.755 93.6057 379.461 93.2537 379.056C92.9124 378.64 92.651 378.091 92.4697 377.408C92.2884 376.715 92.1977 375.856 92.1977 374.832C92.1977 373.712 92.2884 372.773 92.4697 372.016C92.651 371.248 92.9124 370.629 93.2537 370.16C93.595 369.691 94.011 369.355 94.5017 369.152C95.003 368.939 95.5737 368.832 96.2137 368.832C96.9817 368.832 97.6057 368.981 98.0857 369.28C98.5657 369.568 98.9177 369.968 99.1417 370.48C99.3657 370.981 99.4777 371.557 99.4777 372.208H98.2937C98.2937 371.664 98.2084 371.216 98.0377 370.864C97.8777 370.512 97.6377 370.251 97.3177 370.08C96.9977 369.899 96.603 369.808 96.1337 369.808C95.419 369.808 94.8644 369.995 94.4697 370.368C94.075 370.731 93.7977 371.259 93.6377 371.952C93.4884 372.635 93.4084 373.461 93.3977 374.432C93.5897 374.112 93.835 373.84 94.1337 373.616C94.443 373.381 94.7897 373.205 95.1737 373.088C95.5577 372.971 95.9524 372.912 96.3577 372.912C97.1684 372.912 97.8297 373.072 98.3417 373.392C98.8644 373.701 99.2484 374.128 99.4937 374.672C99.7497 375.216 99.8777 375.824 99.8777 376.496C99.8777 377.232 99.7177 377.877 99.3977 378.432C99.0777 378.987 98.6404 379.419 98.0857 379.728C97.5417 380.037 96.9177 380.192 96.2137 380.192ZM96.1017 379.216C96.6884 379.216 97.1684 379.093 97.5417 378.848C97.9257 378.592 98.2084 378.256 98.3897 377.84C98.5817 377.424 98.6777 376.971 98.6777 376.48C98.6777 376.011 98.587 375.584 98.4057 375.2C98.2244 374.805 97.947 374.491 97.5737 374.256C97.211 374.011 96.7364 373.888 96.1497 373.888C95.5737 373.888 95.0884 374.011 94.6937 374.256C94.3097 374.501 94.0217 374.827 93.8297 375.232C93.6377 375.637 93.5417 376.085 93.5417 376.576C93.5417 377.045 93.6324 377.483 93.8137 377.888C94.0057 378.293 94.2884 378.619 94.6617 378.864C95.0457 379.099 95.5257 379.216 96.1017 379.216Z" fill="black"/>
<path d="M138.936 172.192C138.072 172.192 137.346 172.064 136.76 171.808C136.184 171.552 135.746 171.189 135.448 170.72C135.149 170.24 135 169.669 135 169.008V168.816H136.152V168.992C136.152 169.707 136.381 170.256 136.84 170.64C137.309 171.024 137.954 171.216 138.776 171.216C139.618 171.216 140.29 171.04 140.792 170.688C141.304 170.325 141.56 169.755 141.56 168.976C141.56 168.432 141.421 168.011 141.144 167.712C140.877 167.413 140.53 167.205 140.104 167.088C139.677 166.971 139.224 166.912 138.744 166.912H137.496V165.936H138.792C139.24 165.936 139.65 165.867 140.024 165.728C140.408 165.589 140.717 165.365 140.952 165.056C141.186 164.736 141.304 164.315 141.304 163.792C141.304 163.344 141.197 162.976 140.984 162.688C140.77 162.4 140.488 162.181 140.136 162.032C139.784 161.883 139.394 161.808 138.968 161.808C138.509 161.808 138.082 161.893 137.688 162.064C137.304 162.224 137 162.464 136.776 162.784C136.552 163.093 136.44 163.483 136.44 163.952V164.16H135.256V163.92C135.256 163.312 135.41 162.779 135.72 162.32C136.04 161.851 136.477 161.488 137.032 161.232C137.597 160.965 138.232 160.832 138.936 160.832C139.629 160.832 140.242 160.944 140.776 161.168C141.32 161.392 141.741 161.723 142.04 162.16C142.349 162.587 142.504 163.12 142.504 163.76C142.504 164.229 142.413 164.635 142.232 164.976C142.061 165.307 141.832 165.579 141.544 165.792C141.266 166.005 140.968 166.176 140.648 166.304V166.368C141.256 166.539 141.757 166.848 142.152 167.296C142.557 167.744 142.76 168.331 142.76 169.056C142.76 169.707 142.594 170.267 142.264 170.736C141.944 171.205 141.49 171.568 140.904 171.824C140.328 172.069 139.672 172.192 138.936 172.192ZM148.076 172.192C147.489 172.192 146.956 172.101 146.476 171.92C146.007 171.739 145.607 171.435 145.276 171.008C144.956 170.581 144.705 170.005 144.524 169.28C144.353 168.544 144.268 167.621 144.268 166.512C144.268 165.403 144.353 164.485 144.524 163.76C144.705 163.024 144.956 162.443 145.276 162.016C145.607 161.589 146.007 161.285 146.476 161.104C146.956 160.923 147.489 160.832 148.076 160.832C148.673 160.832 149.207 160.923 149.676 161.104C150.145 161.285 150.54 161.589 150.86 162.016C151.191 162.443 151.441 163.024 151.612 163.76C151.793 164.485 151.884 165.403 151.884 166.512C151.884 167.621 151.793 168.544 151.612 169.28C151.441 170.005 151.191 170.581 150.86 171.008C150.54 171.435 150.145 171.739 149.676 171.92C149.207 172.101 148.673 172.192 148.076 172.192ZM148.076 171.216C148.748 171.216 149.265 171.051 149.628 170.72C150.001 170.389 150.268 169.904 150.428 169.264C150.588 168.613 150.668 167.813 150.668 166.864V166.176C150.668 165.216 150.588 164.416 150.428 163.776C150.268 163.125 150.001 162.635 149.628 162.304C149.265 161.973 148.748 161.808 148.076 161.808C147.415 161.808 146.892 161.973 146.508 162.304C146.135 162.635 145.868 163.12 145.708 163.76C145.559 164.4 145.484 165.2 145.484 166.16V166.848C145.484 167.797 145.559 168.597 145.708 169.248C145.868 169.899 146.135 170.389 146.508 170.72C146.892 171.051 147.415 171.216 148.076 171.216Z" fill="black" fill-opacity="0.4"/>
<path d="M226 159C226 151.268 232.268 145 240 145H254C261.732 145 268 151.268 268 159V173C268 180.732 261.732 187 254 187H240C232.268 187 226 180.732 226 173V159Z" fill="#3F15EA"/>
<path d="M143.206 224.192C142.577 224.192 142.011 224.107 141.51 223.936C141.019 223.755 140.598 223.461 140.246 223.056C139.905 222.64 139.643 222.091 139.462 221.408C139.281 220.715 139.19 219.856 139.19 218.832C139.19 217.712 139.281 216.773 139.462 216.016C139.643 215.248 139.905 214.629 140.246 214.16C140.587 213.691 141.003 213.355 141.494 213.152C141.995 212.939 142.566 212.832 143.206 212.832C143.974 212.832 144.598 212.981 145.078 213.28C145.558 213.568 145.91 213.968 146.134 214.48C146.358 214.981 146.47 215.557 146.47 216.208H145.286C145.286 215.664 145.201 215.216 145.03 214.864C144.87 214.512 144.63 214.251 144.31 214.08C143.99 213.899 143.595 213.808 143.126 213.808C142.411 213.808 141.857 213.995 141.462 214.368C141.067 214.731 140.79 215.259 140.63 215.952C140.481 216.635 140.401 217.461 140.39 218.432C140.582 218.112 140.827 217.84 141.126 217.616C141.435 217.381 141.782 217.205 142.166 217.088C142.55 216.971 142.945 216.912 143.35 216.912C144.161 216.912 144.822 217.072 145.334 217.392C145.857 217.701 146.241 218.128 146.486 218.672C146.742 219.216 146.87 219.824 146.87 220.496C146.87 221.232 146.71 221.877 146.39 222.432C146.07 222.987 145.633 223.419 145.078 223.728C144.534 224.037 143.91 224.192 143.206 224.192ZM143.094 223.216C143.681 223.216 144.161 223.093 144.534 222.848C144.918 222.592 145.201 222.256 145.382 221.84C145.574 221.424 145.67 220.971 145.67 220.48C145.67 220.011 145.579 219.584 145.398 219.2C145.217 218.805 144.939 218.491 144.566 218.256C144.203 218.011 143.729 217.888 143.142 217.888C142.566 217.888 142.081 218.011 141.686 218.256C141.302 218.501 141.014 218.827 140.822 219.232C140.63 219.637 140.534 220.085 140.534 220.576C140.534 221.045 140.625 221.483 140.806 221.888C140.998 222.293 141.281 222.619 141.654 222.864C142.038 223.099 142.518 223.216 143.094 223.216Z" fill="black"/>
<path d="M135.285 276V274.992H138.133V267.056H135.285V266.304C135.712 266.283 136.133 266.235 136.549 266.16C136.965 266.085 137.365 265.957 137.749 265.776C138.133 265.595 138.485 265.328 138.805 264.976H139.285V274.992H141.973V276H135.285ZM146.983 276.192C146.119 276.192 145.393 276.064 144.807 275.808C144.231 275.552 143.793 275.189 143.495 274.72C143.196 274.24 143.047 273.669 143.047 273.008V272.816H144.199V272.992C144.199 273.707 144.428 274.256 144.887 274.64C145.356 275.024 146.001 275.216 146.823 275.216C147.665 275.216 148.337 275.04 148.839 274.688C149.351 274.325 149.607 273.755 149.607 272.976C149.607 272.432 149.468 272.011 149.191 271.712C148.924 271.413 148.577 271.205 148.151 271.088C147.724 270.971 147.271 270.912 146.791 270.912H145.543V269.936H146.839C147.287 269.936 147.697 269.867 148.071 269.728C148.455 269.589 148.764 269.365 148.999 269.056C149.233 268.736 149.351 268.315 149.351 267.792C149.351 267.344 149.244 266.976 149.031 266.688C148.817 266.4 148.535 266.181 148.183 266.032C147.831 265.883 147.441 265.808 147.015 265.808C146.556 265.808 146.129 265.893 145.735 266.064C145.351 266.224 145.047 266.464 144.823 266.784C144.599 267.093 144.487 267.483 144.487 267.952V268.16H143.303V267.92C143.303 267.312 143.457 266.779 143.767 266.32C144.087 265.851 144.524 265.488 145.079 265.232C145.644 264.965 146.279 264.832 146.983 264.832C147.676 264.832 148.289 264.944 148.823 265.168C149.367 265.392 149.788 265.723 150.087 266.16C150.396 266.587 150.551 267.12 150.551 267.76C150.551 268.229 150.46 268.635 150.279 268.976C150.108 269.307 149.879 269.579 149.591 269.792C149.313 270.005 149.015 270.176 148.695 270.304V270.368C149.303 270.539 149.804 270.848 150.199 271.296C150.604 271.744 150.807 272.331 150.807 273.056C150.807 273.707 150.641 274.267 150.311 274.736C149.991 275.205 149.537 275.568 148.951 275.824C148.375 276.069 147.719 276.192 146.983 276.192Z" fill="black"/>
<path d="M134.94 380V379.568C134.94 379.131 135.026 378.731 135.196 378.368C135.378 377.995 135.618 377.653 135.916 377.344C136.226 377.035 136.567 376.736 136.94 376.448C137.314 376.16 137.698 375.877 138.092 375.6C138.658 375.216 139.17 374.837 139.628 374.464C140.098 374.08 140.471 373.675 140.748 373.248C141.036 372.811 141.18 372.325 141.18 371.792C141.18 371.397 141.09 371.056 140.908 370.768C140.727 370.469 140.46 370.24 140.108 370.08C139.767 369.909 139.34 369.824 138.828 369.824C138.188 369.824 137.682 369.936 137.308 370.16C136.935 370.384 136.663 370.672 136.492 371.024C136.332 371.376 136.252 371.749 136.252 372.144V372.8H135.116C135.106 372.747 135.095 372.667 135.084 372.56C135.074 372.443 135.068 372.309 135.068 372.16C135.068 371.371 135.244 370.736 135.596 370.256C135.948 369.765 136.418 369.408 137.004 369.184C137.591 368.949 138.226 368.832 138.908 368.832C139.452 368.832 139.938 368.901 140.364 369.04C140.791 369.179 141.154 369.381 141.452 369.648C141.751 369.915 141.98 370.235 142.14 370.608C142.3 370.981 142.38 371.387 142.38 371.824C142.38 372.336 142.29 372.8 142.108 373.216C141.938 373.621 141.692 374 141.372 374.352C141.052 374.704 140.679 375.045 140.252 375.376C139.826 375.707 139.367 376.037 138.876 376.368C138.492 376.624 138.114 376.896 137.74 377.184C137.367 377.472 137.047 377.765 136.78 378.064C136.514 378.352 136.354 378.635 136.3 378.912H142.444V380H134.94ZM145.476 380C145.476 378.955 145.609 377.963 145.876 377.024C146.153 376.075 146.505 375.184 146.932 374.352C147.369 373.509 147.839 372.736 148.34 372.032C148.852 371.328 149.343 370.688 149.812 370.112H143.732V369.024H151.412V369.728C150.996 370.197 150.569 370.72 150.132 371.296C149.705 371.861 149.289 372.469 148.884 373.12C148.489 373.76 148.132 374.427 147.812 375.12C147.492 375.803 147.236 376.496 147.044 377.2C146.863 377.893 146.772 378.581 146.772 379.264V380H145.476Z" fill="black"/>
<path d="M191.045 172.192C190.181 172.192 189.456 172.064 188.869 171.808C188.293 171.552 187.856 171.189 187.557 170.72C187.258 170.24 187.109 169.669 187.109 169.008V168.816H188.261V168.992C188.261 169.707 188.49 170.256 188.949 170.64C189.418 171.024 190.064 171.216 190.885 171.216C191.728 171.216 192.4 171.04 192.901 170.688C193.413 170.325 193.669 169.755 193.669 168.976C193.669 168.432 193.53 168.011 193.253 167.712C192.986 167.413 192.64 167.205 192.213 167.088C191.786 166.971 191.333 166.912 190.853 166.912H189.605V165.936H190.901C191.349 165.936 191.76 165.867 192.133 165.728C192.517 165.589 192.826 165.365 193.061 165.056C193.296 164.736 193.413 164.315 193.413 163.792C193.413 163.344 193.306 162.976 193.093 162.688C192.88 162.4 192.597 162.181 192.245 162.032C191.893 161.883 191.504 161.808 191.077 161.808C190.618 161.808 190.192 161.893 189.797 162.064C189.413 162.224 189.109 162.464 188.885 162.784C188.661 163.093 188.549 163.483 188.549 163.952V164.16H187.365V163.92C187.365 163.312 187.52 162.779 187.829 162.32C188.149 161.851 188.586 161.488 189.141 161.232C189.706 160.965 190.341 160.832 191.045 160.832C191.738 160.832 192.352 160.944 192.885 161.168C193.429 161.392 193.85 161.723 194.149 162.16C194.458 162.587 194.613 163.12 194.613 163.76C194.613 164.229 194.522 164.635 194.341 164.976C194.17 165.307 193.941 165.579 193.653 165.792C193.376 166.005 193.077 166.176 192.757 166.304V166.368C193.365 166.539 193.866 166.848 194.261 167.296C194.666 167.744 194.869 168.331 194.869 169.056C194.869 169.707 194.704 170.267 194.373 170.736C194.053 171.205 193.6 171.568 193.013 171.824C192.437 172.069 191.781 172.192 191.045 172.192ZM196.441 172V170.992H199.289V163.056H196.441V162.304C196.868 162.283 197.289 162.235 197.705 162.16C198.121 162.085 198.521 161.957 198.905 161.776C199.289 161.595 199.641 161.328 199.961 160.976H200.441V170.992H203.129V172H196.441Z" fill="black" fill-opacity="0.4"/>
<path d="M193.468 224C193.468 222.955 193.601 221.963 193.868 221.024C194.145 220.075 194.497 219.184 194.924 218.352C195.361 217.509 195.831 216.736 196.332 216.032C196.844 215.328 197.335 214.688 197.804 214.112H191.724V213.024H199.404V213.728C198.988 214.197 198.561 214.72 198.124 215.296C197.697 215.861 197.281 216.469 196.876 217.12C196.481 217.76 196.124 218.427 195.804 219.12C195.484 219.803 195.228 220.496 195.036 221.2C194.855 221.893 194.764 222.581 194.764 223.264V224H193.468Z" fill="black"/>
<path d="M188.004 276V274.992H190.852V267.056H188.004V266.304C188.431 266.283 188.852 266.235 189.268 266.16C189.684 266.085 190.084 265.957 190.468 265.776C190.852 265.595 191.204 265.328 191.524 264.976H192.004V274.992H194.692V276H188.004ZM200.773 276V273.2H195.541V272.208C196 271.408 196.416 270.613 196.789 269.824C197.163 269.035 197.493 268.229 197.781 267.408C198.069 266.576 198.304 265.717 198.485 264.832H199.717C199.579 265.429 199.408 266.037 199.205 266.656C199.013 267.275 198.795 267.877 198.549 268.464C198.315 269.051 198.08 269.595 197.845 270.096C197.611 270.597 197.392 271.035 197.189 271.408C196.987 271.771 196.821 272.037 196.693 272.208H200.773V268.384C200.827 268.235 200.88 268.075 200.933 267.904C200.987 267.733 201.035 267.563 201.077 267.392C201.131 267.211 201.179 267.045 201.221 266.896C201.264 266.747 201.301 266.603 201.333 266.464H201.925V272.208H203.429V273.2H201.925V276H200.773Z" fill="black"/>
<path d="M187.807 328V327.568C187.807 327.131 187.893 326.731 188.063 326.368C188.245 325.995 188.485 325.653 188.783 325.344C189.093 325.035 189.434 324.736 189.807 324.448C190.181 324.16 190.565 323.877 190.959 323.6C191.525 323.216 192.037 322.837 192.495 322.464C192.965 322.08 193.338 321.675 193.615 321.248C193.903 320.811 194.047 320.325 194.047 319.792C194.047 319.397 193.957 319.056 193.775 318.768C193.594 318.469 193.327 318.24 192.975 318.08C192.634 317.909 192.207 317.824 191.695 317.824C191.055 317.824 190.549 317.936 190.175 318.16C189.802 318.384 189.53 318.672 189.359 319.024C189.199 319.376 189.119 319.749 189.119 320.144V320.8H187.983C187.973 320.747 187.962 320.667 187.951 320.56C187.941 320.443 187.935 320.309 187.935 320.16C187.935 319.371 188.111 318.736 188.463 318.256C188.815 317.765 189.285 317.408 189.871 317.184C190.458 316.949 191.093 316.832 191.775 316.832C192.319 316.832 192.805 316.901 193.231 317.04C193.658 317.179 194.021 317.381 194.319 317.648C194.618 317.915 194.847 318.235 195.007 318.608C195.167 318.981 195.247 319.387 195.247 319.824C195.247 320.336 195.157 320.8 194.975 321.216C194.805 321.621 194.559 322 194.239 322.352C193.919 322.704 193.546 323.045 193.119 323.376C192.693 323.707 192.234 324.037 191.743 324.368C191.359 324.624 190.981 324.896 190.607 325.184C190.234 325.472 189.914 325.765 189.647 326.064C189.381 326.352 189.221 326.635 189.167 326.912H195.311V328H187.807ZM196.871 328V326.992H199.719V319.056H196.871V318.304C197.298 318.283 197.719 318.235 198.135 318.16C198.551 318.085 198.951 317.957 199.335 317.776C199.719 317.595 200.071 317.328 200.391 316.976H200.871V326.992H203.559V328H196.871Z" fill="black"/>
<path d="M187.19 380V379.568C187.19 379.131 187.276 378.731 187.446 378.368C187.628 377.995 187.868 377.653 188.166 377.344C188.476 377.035 188.817 376.736 189.19 376.448C189.564 376.16 189.948 375.877 190.342 375.6C190.908 375.216 191.42 374.837 191.878 374.464C192.348 374.08 192.721 373.675 192.998 373.248C193.286 372.811 193.43 372.325 193.43 371.792C193.43 371.397 193.34 371.056 193.158 370.768C192.977 370.469 192.71 370.24 192.358 370.08C192.017 369.909 191.59 369.824 191.078 369.824C190.438 369.824 189.932 369.936 189.558 370.16C189.185 370.384 188.913 370.672 188.742 371.024C188.582 371.376 188.502 371.749 188.502 372.144V372.8H187.366C187.356 372.747 187.345 372.667 187.334 372.56C187.324 372.443 187.318 372.309 187.318 372.16C187.318 371.371 187.494 370.736 187.846 370.256C188.198 369.765 188.668 369.408 189.254 369.184C189.841 368.949 190.476 368.832 191.158 368.832C191.702 368.832 192.188 368.901 192.614 369.04C193.041 369.179 193.404 369.381 193.702 369.648C194.001 369.915 194.23 370.235 194.39 370.608C194.55 370.981 194.63 371.387 194.63 371.824C194.63 372.336 194.54 372.8 194.358 373.216C194.188 373.621 193.942 374 193.622 374.352C193.302 374.704 192.929 375.045 192.502 375.376C192.076 375.707 191.617 376.037 191.126 376.368C190.742 376.624 190.364 376.896 189.99 377.184C189.617 377.472 189.297 377.765 189.03 378.064C188.764 378.352 188.604 378.635 188.55 378.912H194.694V380H187.19ZM200.014 380.192C199.118 380.192 198.387 380.053 197.822 379.776C197.257 379.488 196.846 379.104 196.59 378.624C196.334 378.133 196.206 377.595 196.206 377.008C196.206 376.411 196.355 375.883 196.654 375.424C196.963 374.965 197.443 374.613 198.094 374.368C197.582 374.101 197.187 373.749 196.91 373.312C196.633 372.864 196.494 372.373 196.494 371.84C196.494 371.275 196.627 370.768 196.894 370.32C197.161 369.861 197.555 369.499 198.078 369.232C198.601 368.965 199.246 368.832 200.014 368.832C200.782 368.832 201.422 368.965 201.934 369.232C202.457 369.499 202.846 369.861 203.102 370.32C203.369 370.768 203.502 371.275 203.502 371.84C203.502 372.373 203.363 372.864 203.086 373.312C202.819 373.749 202.425 374.101 201.902 374.368C202.563 374.613 203.043 374.965 203.342 375.424C203.651 375.883 203.806 376.411 203.806 377.008C203.806 377.595 203.678 378.133 203.422 378.624C203.166 379.104 202.755 379.488 202.19 379.776C201.635 380.053 200.91 380.192 200.014 380.192ZM200.014 379.216C200.867 379.216 201.507 379.024 201.934 378.64C202.371 378.245 202.59 377.712 202.59 377.04C202.59 376.379 202.371 375.851 201.934 375.456C201.507 375.061 200.867 374.864 200.014 374.864C199.15 374.864 198.499 375.061 198.062 375.456C197.625 375.851 197.406 376.379 197.406 377.04C197.406 377.712 197.625 378.245 198.062 378.64C198.499 379.024 199.15 379.216 200.014 379.216ZM200.014 373.904C200.729 373.904 201.289 373.723 201.694 373.36C202.11 372.997 202.318 372.491 202.318 371.84C202.318 371.189 202.11 370.688 201.694 370.336C201.289 369.984 200.729 369.808 200.014 369.808C199.289 369.808 198.718 369.984 198.302 370.336C197.897 370.688 197.694 371.189 197.694 371.84C197.694 372.491 197.897 372.997 198.302 373.36C198.718 373.723 199.289 373.904 200.014 373.904Z" fill="black"/>
<path d="M247.453 171H248.516V159.727H247.453L244.445 161.812V162.938L247.359 160.914H247.453V171Z" fill="white"/>
<path d="M247.006 224.192C246.11 224.192 245.379 224.053 244.814 223.776C244.249 223.488 243.838 223.104 243.582 222.624C243.326 222.133 243.198 221.595 243.198 221.008C243.198 220.411 243.347 219.883 243.646 219.424C243.955 218.965 244.435 218.613 245.086 218.368C244.574 218.101 244.179 217.749 243.902 217.312C243.625 216.864 243.486 216.373 243.486 215.84C243.486 215.275 243.619 214.768 243.886 214.32C244.153 213.861 244.547 213.499 245.07 213.232C245.593 212.965 246.238 212.832 247.006 212.832C247.774 212.832 248.414 212.965 248.926 213.232C249.449 213.499 249.838 213.861 250.094 214.32C250.361 214.768 250.494 215.275 250.494 215.84C250.494 216.373 250.355 216.864 250.078 217.312C249.811 217.749 249.417 218.101 248.894 218.368C249.555 218.613 250.035 218.965 250.334 219.424C250.643 219.883 250.798 220.411 250.798 221.008C250.798 221.595 250.67 222.133 250.414 222.624C250.158 223.104 249.747 223.488 249.182 223.776C248.627 224.053 247.902 224.192 247.006 224.192ZM247.006 223.216C247.859 223.216 248.499 223.024 248.926 222.64C249.363 222.245 249.582 221.712 249.582 221.04C249.582 220.379 249.363 219.851 248.926 219.456C248.499 219.061 247.859 218.864 247.006 218.864C246.142 218.864 245.491 219.061 245.054 219.456C244.617 219.851 244.398 220.379 244.398 221.04C244.398 221.712 244.617 222.245 245.054 222.64C245.491 223.024 246.142 223.216 247.006 223.216ZM247.006 217.904C247.721 217.904 248.281 217.723 248.686 217.36C249.102 216.997 249.31 216.491 249.31 215.84C249.31 215.189 249.102 214.688 248.686 214.336C248.281 213.984 247.721 213.808 247.006 213.808C246.281 213.808 245.71 213.984 245.294 214.336C244.889 214.688 244.686 215.189 244.686 215.84C244.686 216.491 244.889 216.997 245.294 217.36C245.71 217.723 246.281 217.904 247.006 217.904Z" fill="black"/>
<path d="M239.301 276V274.992H242.149V267.056H239.301V266.304C239.727 266.283 240.149 266.235 240.565 266.16C240.981 266.085 241.381 265.957 241.765 265.776C242.149 265.595 242.501 265.328 242.821 264.976H243.301V274.992H245.989V276H239.301ZM251.078 276.192C250.31 276.192 249.633 276.048 249.046 275.76C248.47 275.472 248.022 275.061 247.702 274.528C247.382 273.984 247.222 273.339 247.222 272.592H248.39C248.39 273.136 248.513 273.605 248.758 274C249.004 274.395 249.329 274.699 249.734 274.912C250.14 275.115 250.588 275.216 251.078 275.216C251.58 275.216 252.022 275.115 252.406 274.912C252.801 274.709 253.105 274.405 253.318 274C253.542 273.584 253.654 273.056 253.654 272.416C253.654 271.851 253.553 271.381 253.35 271.008C253.158 270.624 252.881 270.341 252.518 270.16C252.156 269.979 251.724 269.888 251.222 269.888C250.881 269.888 250.545 269.941 250.214 270.048C249.894 270.155 249.601 270.315 249.334 270.528C249.078 270.731 248.87 270.987 248.71 271.296L247.622 271.104L248.086 265.024H254.278V266.112H249.11L248.822 269.872C249.014 269.691 249.233 269.525 249.478 269.376C249.724 269.227 250.006 269.109 250.326 269.024C250.646 268.928 251.004 268.88 251.398 268.88C252.049 268.88 252.63 269.003 253.142 269.248C253.665 269.493 254.081 269.872 254.39 270.384C254.7 270.885 254.854 271.541 254.854 272.352C254.854 273.152 254.7 273.84 254.39 274.416C254.092 274.992 253.66 275.435 253.094 275.744C252.54 276.043 251.868 276.192 251.078 276.192Z" fill="black"/>
<path d="M239.268 328V327.568C239.268 327.131 239.354 326.731 239.524 326.368C239.706 325.995 239.946 325.653 240.244 325.344C240.554 325.035 240.895 324.736 241.268 324.448C241.642 324.16 242.026 323.877 242.42 323.6C242.986 323.216 243.498 322.837 243.956 322.464C244.426 322.08 244.799 321.675 245.076 321.248C245.364 320.811 245.508 320.325 245.508 319.792C245.508 319.397 245.418 319.056 245.236 318.768C245.055 318.469 244.788 318.24 244.436 318.08C244.095 317.909 243.668 317.824 243.156 317.824C242.516 317.824 242.01 317.936 241.636 318.16C241.263 318.384 240.991 318.672 240.82 319.024C240.66 319.376 240.58 319.749 240.58 320.144V320.8H239.444C239.434 320.747 239.423 320.667 239.412 320.56C239.402 320.443 239.396 320.309 239.396 320.16C239.396 319.371 239.572 318.736 239.924 318.256C240.276 317.765 240.746 317.408 241.332 317.184C241.919 316.949 242.554 316.832 243.236 316.832C243.78 316.832 244.266 316.901 244.692 317.04C245.119 317.179 245.482 317.381 245.78 317.648C246.079 317.915 246.308 318.235 246.468 318.608C246.628 318.981 246.708 319.387 246.708 319.824C246.708 320.336 246.618 320.8 246.436 321.216C246.266 321.621 246.02 322 245.7 322.352C245.38 322.704 245.007 323.045 244.58 323.376C244.154 323.707 243.695 324.037 243.204 324.368C242.82 324.624 242.442 324.896 242.068 325.184C241.695 325.472 241.375 325.765 241.108 326.064C240.842 326.352 240.682 326.635 240.628 326.912H246.772V328H239.268ZM248.284 328V327.568C248.284 327.131 248.369 326.731 248.54 326.368C248.721 325.995 248.961 325.653 249.26 325.344C249.569 325.035 249.911 324.736 250.284 324.448C250.657 324.16 251.041 323.877 251.436 323.6C252.001 323.216 252.513 322.837 252.972 322.464C253.441 322.08 253.815 321.675 254.092 321.248C254.38 320.811 254.524 320.325 254.524 319.792C254.524 319.397 254.433 319.056 254.252 318.768C254.071 318.469 253.804 318.24 253.452 318.08C253.111 317.909 252.684 317.824 252.172 317.824C251.532 317.824 251.025 317.936 250.652 318.16C250.279 318.384 250.007 318.672 249.836 319.024C249.676 319.376 249.596 319.749 249.596 320.144V320.8H248.46C248.449 320.747 248.439 320.667 248.428 320.56C248.417 320.443 248.412 320.309 248.412 320.16C248.412 319.371 248.588 318.736 248.94 318.256C249.292 317.765 249.761 317.408 250.348 317.184C250.935 316.949 251.569 316.832 252.252 316.832C252.796 316.832 253.281 316.901 253.708 317.04C254.135 317.179 254.497 317.381 254.796 317.648C255.095 317.915 255.324 318.235 255.484 318.608C255.644 318.981 255.724 319.387 255.724 319.824C255.724 320.336 255.633 320.8 255.452 321.216C255.281 321.621 255.036 322 254.716 322.352C254.396 322.704 254.023 323.045 253.596 323.376C253.169 323.707 252.711 324.037 252.22 324.368C251.836 324.624 251.457 324.896 251.084 325.184C250.711 325.472 250.391 325.765 250.124 326.064C249.857 326.352 249.697 326.635 249.644 326.912H255.788V328H248.284Z" fill="black"/>
<path d="M239.198 380V379.568C239.198 379.131 239.283 378.731 239.454 378.368C239.635 377.995 239.875 377.653 240.174 377.344C240.483 377.035 240.825 376.736 241.198 376.448C241.571 376.16 241.955 375.877 242.35 375.6C242.915 375.216 243.427 374.837 243.886 374.464C244.355 374.08 244.729 373.675 245.006 373.248C245.294 372.811 245.438 372.325 245.438 371.792C245.438 371.397 245.347 371.056 245.166 370.768C244.985 370.469 244.718 370.24 244.366 370.08C244.025 369.909 243.598 369.824 243.086 369.824C242.446 369.824 241.939 369.936 241.566 370.16C241.193 370.384 240.921 370.672 240.75 371.024C240.59 371.376 240.51 371.749 240.51 372.144V372.8H239.374C239.363 372.747 239.353 372.667 239.342 372.56C239.331 372.443 239.326 372.309 239.326 372.16C239.326 371.371 239.502 370.736 239.854 370.256C240.206 369.765 240.675 369.408 241.262 369.184C241.849 368.949 242.483 368.832 243.166 368.832C243.71 368.832 244.195 368.901 244.622 369.04C245.049 369.179 245.411 369.381 245.71 369.648C246.009 369.915 246.238 370.235 246.398 370.608C246.558 370.981 246.638 371.387 246.638 371.824C246.638 372.336 246.547 372.8 246.366 373.216C246.195 373.621 245.95 374 245.63 374.352C245.31 374.704 244.937 375.045 244.51 375.376C244.083 375.707 243.625 376.037 243.134 376.368C242.75 376.624 242.371 376.896 241.998 377.184C241.625 377.472 241.305 377.765 241.038 378.064C240.771 378.352 240.611 378.635 240.558 378.912H246.702V380H239.198ZM251.798 380.192C251.03 380.192 250.406 380.048 249.926 379.76C249.446 379.461 249.094 379.056 248.87 378.544C248.646 378.032 248.534 377.456 248.534 376.816H249.718C249.718 377.36 249.798 377.808 249.958 378.16C250.128 378.512 250.374 378.779 250.694 378.96C251.014 379.131 251.408 379.216 251.878 379.216C252.592 379.216 253.142 379.035 253.526 378.672C253.92 378.299 254.198 377.771 254.358 377.088C254.518 376.395 254.603 375.563 254.614 374.592C254.432 374.912 254.187 375.189 253.878 375.424C253.568 375.648 253.222 375.819 252.838 375.936C252.464 376.053 252.07 376.112 251.654 376.112C250.854 376.112 250.192 375.957 249.67 375.648C249.158 375.328 248.774 374.896 248.518 374.352C248.262 373.808 248.134 373.2 248.134 372.528C248.134 371.781 248.294 371.136 248.614 370.592C248.934 370.037 249.371 369.605 249.926 369.296C250.48 368.987 251.104 368.832 251.798 368.832C252.427 368.832 252.987 368.923 253.478 369.104C253.979 369.275 254.4 369.568 254.742 369.984C255.094 370.389 255.36 370.939 255.542 371.632C255.723 372.315 255.814 373.168 255.814 374.192C255.814 375.301 255.723 376.24 255.542 377.008C255.36 377.776 255.099 378.395 254.758 378.864C254.416 379.333 253.995 379.675 253.494 379.888C253.003 380.091 252.438 380.192 251.798 380.192ZM251.862 375.136C252.438 375.136 252.918 375.013 253.302 374.768C253.686 374.523 253.974 374.197 254.166 373.792C254.368 373.376 254.47 372.928 254.47 372.448C254.47 371.968 254.374 371.531 254.182 371.136C254 370.731 253.718 370.411 253.334 370.176C252.96 369.931 252.486 369.808 251.91 369.808C251.323 369.808 250.838 369.936 250.454 370.192C250.08 370.437 249.798 370.768 249.606 371.184C249.424 371.6 249.334 372.053 249.334 372.544C249.334 373.013 249.424 373.445 249.606 373.84C249.787 374.224 250.059 374.539 250.422 374.784C250.795 375.019 251.275 375.136 251.862 375.136Z" fill="black"/>
<path d="M298.79 224.192C298.022 224.192 297.398 224.048 296.918 223.76C296.438 223.461 296.086 223.056 295.862 222.544C295.638 222.032 295.526 221.456 295.526 220.816H296.71C296.71 221.36 296.79 221.808 296.95 222.16C297.121 222.512 297.366 222.779 297.686 222.96C298.006 223.131 298.401 223.216 298.87 223.216C299.585 223.216 300.134 223.035 300.518 222.672C300.913 222.299 301.19 221.771 301.35 221.088C301.51 220.395 301.595 219.563 301.606 218.592C301.425 218.912 301.179 219.189 300.87 219.424C300.561 219.648 300.214 219.819 299.83 219.936C299.457 220.053 299.062 220.112 298.646 220.112C297.846 220.112 297.185 219.957 296.662 219.648C296.15 219.328 295.766 218.896 295.51 218.352C295.254 217.808 295.126 217.2 295.126 216.528C295.126 215.781 295.286 215.136 295.606 214.592C295.926 214.037 296.363 213.605 296.918 213.296C297.473 212.987 298.097 212.832 298.79 212.832C299.419 212.832 299.979 212.923 300.47 213.104C300.971 213.275 301.393 213.568 301.734 213.984C302.086 214.389 302.353 214.939 302.534 215.632C302.715 216.315 302.806 217.168 302.806 218.192C302.806 219.301 302.715 220.24 302.534 221.008C302.353 221.776 302.091 222.395 301.75 222.864C301.409 223.333 300.987 223.675 300.486 223.888C299.995 224.091 299.43 224.192 298.79 224.192ZM298.854 219.136C299.43 219.136 299.91 219.013 300.294 218.768C300.678 218.523 300.966 218.197 301.158 217.792C301.361 217.376 301.462 216.928 301.462 216.448C301.462 215.968 301.366 215.531 301.174 215.136C300.993 214.731 300.71 214.411 300.326 214.176C299.953 213.931 299.478 213.808 298.902 213.808C298.315 213.808 297.83 213.936 297.446 214.192C297.073 214.437 296.79 214.768 296.598 215.184C296.417 215.6 296.326 216.053 296.326 216.544C296.326 217.013 296.417 217.445 296.598 217.84C296.779 218.224 297.051 218.539 297.414 218.784C297.787 219.019 298.267 219.136 298.854 219.136Z" fill="black"/>
<path d="M291.285 276V274.992H294.133V267.056H291.285V266.304C291.712 266.283 292.133 266.235 292.549 266.16C292.965 266.085 293.365 265.957 293.749 265.776C294.133 265.595 294.485 265.328 294.805 264.976H295.285V274.992H297.973V276H291.285ZM303.175 276.192C302.545 276.192 301.98 276.107 301.479 275.936C300.988 275.755 300.567 275.461 300.215 275.056C299.873 274.64 299.612 274.091 299.431 273.408C299.249 272.715 299.159 271.856 299.159 270.832C299.159 269.712 299.249 268.773 299.431 268.016C299.612 267.248 299.873 266.629 300.215 266.16C300.556 265.691 300.972 265.355 301.463 265.152C301.964 264.939 302.535 264.832 303.175 264.832C303.943 264.832 304.567 264.981 305.047 265.28C305.527 265.568 305.879 265.968 306.103 266.48C306.327 266.981 306.439 267.557 306.439 268.208H305.255C305.255 267.664 305.169 267.216 304.999 266.864C304.839 266.512 304.599 266.251 304.279 266.08C303.959 265.899 303.564 265.808 303.095 265.808C302.38 265.808 301.825 265.995 301.431 266.368C301.036 266.731 300.759 267.259 300.599 267.952C300.449 268.635 300.369 269.461 300.359 270.432C300.551 270.112 300.796 269.84 301.095 269.616C301.404 269.381 301.751 269.205 302.135 269.088C302.519 268.971 302.913 268.912 303.319 268.912C304.129 268.912 304.791 269.072 305.303 269.392C305.825 269.701 306.209 270.128 306.455 270.672C306.711 271.216 306.839 271.824 306.839 272.496C306.839 273.232 306.679 273.877 306.359 274.432C306.039 274.987 305.601 275.419 305.047 275.728C304.503 276.037 303.879 276.192 303.175 276.192ZM303.063 275.216C303.649 275.216 304.129 275.093 304.503 274.848C304.887 274.592 305.169 274.256 305.351 273.84C305.543 273.424 305.639 272.971 305.639 272.48C305.639 272.011 305.548 271.584 305.367 271.2C305.185 270.805 304.908 270.491 304.535 270.256C304.172 270.011 303.697 269.888 303.111 269.888C302.535 269.888 302.049 270.011 301.655 270.256C301.271 270.501 300.983 270.827 300.791 271.232C300.599 271.637 300.503 272.085 300.503 272.576C300.503 273.045 300.593 273.483 300.775 273.888C300.967 274.293 301.249 274.619 301.623 274.864C302.007 275.099 302.487 275.216 303.063 275.216Z" fill="black"/>
<path d="M291.198 328V327.568C291.198 327.131 291.283 326.731 291.454 326.368C291.635 325.995 291.875 325.653 292.174 325.344C292.483 325.035 292.825 324.736 293.198 324.448C293.571 324.16 293.955 323.877 294.35 323.6C294.915 323.216 295.427 322.837 295.886 322.464C296.355 322.08 296.729 321.675 297.006 321.248C297.294 320.811 297.438 320.325 297.438 319.792C297.438 319.397 297.347 319.056 297.166 318.768C296.985 318.469 296.718 318.24 296.366 318.08C296.025 317.909 295.598 317.824 295.086 317.824C294.446 317.824 293.939 317.936 293.566 318.16C293.193 318.384 292.921 318.672 292.75 319.024C292.59 319.376 292.51 319.749 292.51 320.144V320.8H291.374C291.363 320.747 291.353 320.667 291.342 320.56C291.331 320.443 291.326 320.309 291.326 320.16C291.326 319.371 291.502 318.736 291.854 318.256C292.206 317.765 292.675 317.408 293.262 317.184C293.849 316.949 294.483 316.832 295.166 316.832C295.71 316.832 296.195 316.901 296.622 317.04C297.049 317.179 297.411 317.381 297.71 317.648C298.009 317.915 298.238 318.235 298.398 318.608C298.558 318.981 298.638 319.387 298.638 319.824C298.638 320.336 298.547 320.8 298.366 321.216C298.195 321.621 297.95 322 297.63 322.352C297.31 322.704 296.937 323.045 296.51 323.376C296.083 323.707 295.625 324.037 295.134 324.368C294.75 324.624 294.371 324.896 293.998 325.184C293.625 325.472 293.305 325.765 293.038 326.064C292.771 326.352 292.611 326.635 292.558 326.912H298.702V328H291.198ZM304.022 328.192C303.158 328.192 302.432 328.064 301.846 327.808C301.27 327.552 300.832 327.189 300.534 326.72C300.235 326.24 300.086 325.669 300.086 325.008V324.816H301.238V324.992C301.238 325.707 301.467 326.256 301.926 326.64C302.395 327.024 303.04 327.216 303.862 327.216C304.704 327.216 305.376 327.04 305.878 326.688C306.39 326.325 306.646 325.755 306.646 324.976C306.646 324.432 306.507 324.011 306.23 323.712C305.963 323.413 305.616 323.205 305.19 323.088C304.763 322.971 304.31 322.912 303.83 322.912H302.582V321.936H303.878C304.326 321.936 304.736 321.867 305.11 321.728C305.494 321.589 305.803 321.365 306.038 321.056C306.272 320.736 306.39 320.315 306.39 319.792C306.39 319.344 306.283 318.976 306.07 318.688C305.856 318.4 305.574 318.181 305.222 318.032C304.87 317.883 304.48 317.808 304.054 317.808C303.595 317.808 303.168 317.893 302.774 318.064C302.39 318.224 302.086 318.464 301.862 318.784C301.638 319.093 301.526 319.483 301.526 319.952V320.16H300.342V319.92C300.342 319.312 300.496 318.779 300.806 318.32C301.126 317.851 301.563 317.488 302.118 317.232C302.683 316.965 303.318 316.832 304.022 316.832C304.715 316.832 305.328 316.944 305.862 317.168C306.406 317.392 306.827 317.723 307.126 318.16C307.435 318.587 307.59 319.12 307.59 319.76C307.59 320.229 307.499 320.635 307.318 320.976C307.147 321.307 306.918 321.579 306.63 321.792C306.352 322.005 306.054 322.176 305.734 322.304V322.368C306.342 322.539 306.843 322.848 307.238 323.296C307.643 323.744 307.846 324.331 307.846 325.056C307.846 325.707 307.68 326.267 307.35 326.736C307.03 327.205 306.576 327.568 305.99 327.824C305.414 328.069 304.758 328.192 304.022 328.192Z" fill="black"/>
<path d="M294.936 380.192C294.072 380.192 293.346 380.064 292.76 379.808C292.184 379.552 291.746 379.189 291.448 378.72C291.149 378.24 291 377.669 291 377.008V376.816H292.152V376.992C292.152 377.707 292.381 378.256 292.84 378.64C293.309 379.024 293.954 379.216 294.776 379.216C295.618 379.216 296.29 379.04 296.792 378.688C297.304 378.325 297.56 377.755 297.56 376.976C297.56 376.432 297.421 376.011 297.144 375.712C296.877 375.413 296.53 375.205 296.104 375.088C295.677 374.971 295.224 374.912 294.744 374.912H293.496V373.936H294.792C295.24 373.936 295.65 373.867 296.024 373.728C296.408 373.589 296.717 373.365 296.952 373.056C297.186 372.736 297.304 372.315 297.304 371.792C297.304 371.344 297.197 370.976 296.984 370.688C296.77 370.4 296.488 370.181 296.136 370.032C295.784 369.883 295.394 369.808 294.968 369.808C294.509 369.808 294.082 369.893 293.688 370.064C293.304 370.224 293 370.464 292.776 370.784C292.552 371.093 292.44 371.483 292.44 371.952V372.16H291.256V371.92C291.256 371.312 291.41 370.779 291.72 370.32C292.04 369.851 292.477 369.488 293.032 369.232C293.597 368.965 294.232 368.832 294.936 368.832C295.629 368.832 296.242 368.944 296.776 369.168C297.32 369.392 297.741 369.723 298.04 370.16C298.349 370.587 298.504 371.12 298.504 371.76C298.504 372.229 298.413 372.635 298.232 372.976C298.061 373.307 297.832 373.579 297.544 373.792C297.266 374.005 296.968 374.176 296.648 374.304V374.368C297.256 374.539 297.757 374.848 298.152 375.296C298.557 375.744 298.76 376.331 298.76 377.056C298.76 377.707 298.594 378.267 298.264 378.736C297.944 379.205 297.49 379.568 296.904 379.824C296.328 380.069 295.672 380.192 294.936 380.192ZM304.076 380.192C303.489 380.192 302.956 380.101 302.476 379.92C302.007 379.739 301.607 379.435 301.276 379.008C300.956 378.581 300.705 378.005 300.524 377.28C300.353 376.544 300.268 375.621 300.268 374.512C300.268 373.403 300.353 372.485 300.524 371.76C300.705 371.024 300.956 370.443 301.276 370.016C301.607 369.589 302.007 369.285 302.476 369.104C302.956 368.923 303.489 368.832 304.076 368.832C304.673 368.832 305.207 368.923 305.676 369.104C306.145 369.285 306.54 369.589 306.86 370.016C307.191 370.443 307.441 371.024 307.612 371.76C307.793 372.485 307.884 373.403 307.884 374.512C307.884 375.621 307.793 376.544 307.612 377.28C307.441 378.005 307.191 378.581 306.86 379.008C306.54 379.435 306.145 379.739 305.676 379.92C305.207 380.101 304.673 380.192 304.076 380.192ZM304.076 379.216C304.748 379.216 305.265 379.051 305.628 378.72C306.001 378.389 306.268 377.904 306.428 377.264C306.588 376.613 306.668 375.813 306.668 374.864V374.176C306.668 373.216 306.588 372.416 306.428 371.776C306.268 371.125 306.001 370.635 305.628 370.304C305.265 369.973 304.748 369.808 304.076 369.808C303.415 369.808 302.892 369.973 302.508 370.304C302.135 370.635 301.868 371.12 301.708 371.76C301.559 372.4 301.484 373.2 301.484 374.16V374.848C301.484 375.797 301.559 376.597 301.708 377.248C301.868 377.899 302.135 378.389 302.508 378.72C302.892 379.051 303.415 379.216 304.076 379.216Z" fill="black"/>
<path d="M351.014 172.192C350.15 172.192 349.425 172.064 348.838 171.808C348.262 171.552 347.825 171.189 347.526 170.72C347.227 170.24 347.078 169.669 347.078 169.008V168.816H348.23V168.992C348.23 169.707 348.459 170.256 348.918 170.64C349.387 171.024 350.033 171.216 350.854 171.216C351.697 171.216 352.369 171.04 352.87 170.688C353.382 170.325 353.638 169.755 353.638 168.976C353.638 168.432 353.499 168.011 353.222 167.712C352.955 167.413 352.609 167.205 352.182 167.088C351.755 166.971 351.302 166.912 350.822 166.912H349.574V165.936H350.87C351.318 165.936 351.729 165.867 352.102 165.728C352.486 165.589 352.795 165.365 353.03 165.056C353.265 164.736 353.382 164.315 353.382 163.792C353.382 163.344 353.275 162.976 353.062 162.688C352.849 162.4 352.566 162.181 352.214 162.032C351.862 161.883 351.473 161.808 351.046 161.808C350.587 161.808 350.161 161.893 349.766 162.064C349.382 162.224 349.078 162.464 348.854 162.784C348.63 163.093 348.518 163.483 348.518 163.952V164.16H347.334V163.92C347.334 163.312 347.489 162.779 347.798 162.32C348.118 161.851 348.555 161.488 349.11 161.232C349.675 160.965 350.31 160.832 351.014 160.832C351.707 160.832 352.321 160.944 352.854 161.168C353.398 161.392 353.819 161.723 354.118 162.16C354.427 162.587 354.582 163.12 354.582 163.76C354.582 164.229 354.491 164.635 354.31 164.976C354.139 165.307 353.91 165.579 353.622 165.792C353.345 166.005 353.046 166.176 352.726 166.304V166.368C353.334 166.539 353.835 166.848 354.23 167.296C354.635 167.744 354.838 168.331 354.838 169.056C354.838 169.707 354.673 170.267 354.342 170.736C354.022 171.205 353.569 171.568 352.982 171.824C352.406 172.069 351.75 172.192 351.014 172.192Z" fill="black"/>
<path d="M343.285 224V222.992H346.133V215.056H343.285V214.304C343.712 214.283 344.133 214.235 344.549 214.16C344.965 214.085 345.365 213.957 345.749 213.776C346.133 213.595 346.485 213.328 346.805 212.976H347.285V222.992H349.973V224H343.285ZM354.967 224.192C354.38 224.192 353.847 224.101 353.367 223.92C352.897 223.739 352.497 223.435 352.167 223.008C351.847 222.581 351.596 222.005 351.415 221.28C351.244 220.544 351.159 219.621 351.159 218.512C351.159 217.403 351.244 216.485 351.415 215.76C351.596 215.024 351.847 214.443 352.167 214.016C352.497 213.589 352.897 213.285 353.367 213.104C353.847 212.923 354.38 212.832 354.967 212.832C355.564 212.832 356.097 212.923 356.567 213.104C357.036 213.285 357.431 213.589 357.751 214.016C358.081 214.443 358.332 215.024 358.503 215.76C358.684 216.485 358.775 217.403 358.775 218.512C358.775 219.621 358.684 220.544 358.503 221.28C358.332 222.005 358.081 222.581 357.751 223.008C357.431 223.435 357.036 223.739 356.567 223.92C356.097 224.101 355.564 224.192 354.967 224.192ZM354.967 223.216C355.639 223.216 356.156 223.051 356.519 222.72C356.892 222.389 357.159 221.904 357.319 221.264C357.479 220.613 357.559 219.813 357.559 218.864V218.176C357.559 217.216 357.479 216.416 357.319 215.776C357.159 215.125 356.892 214.635 356.519 214.304C356.156 213.973 355.639 213.808 354.967 213.808C354.305 213.808 353.783 213.973 353.399 214.304C353.025 214.635 352.759 215.12 352.599 215.76C352.449 216.4 352.375 217.2 352.375 218.16V218.848C352.375 219.797 352.449 220.597 352.599 221.248C352.759 221.899 353.025 222.389 353.399 222.72C353.783 223.051 354.305 223.216 354.967 223.216Z" fill="black"/>
<path d="M344.027 276V274.992H346.875V267.056H344.027V266.304C344.454 266.283 344.875 266.235 345.291 266.16C345.707 266.085 346.107 265.957 346.491 265.776C346.875 265.595 347.227 265.328 347.547 264.976H348.027V274.992H350.715V276H344.027ZM353.437 276C353.437 274.955 353.57 273.963 353.837 273.024C354.114 272.075 354.466 271.184 354.893 270.352C355.33 269.509 355.799 268.736 356.301 268.032C356.813 267.328 357.303 266.688 357.773 266.112H351.693V265.024H359.373V265.728C358.957 266.197 358.53 266.72 358.093 267.296C357.666 267.861 357.25 268.469 356.845 269.12C356.45 269.76 356.093 270.427 355.773 271.12C355.453 271.803 355.197 272.496 355.005 273.2C354.823 273.893 354.733 274.581 354.733 275.264V276H353.437Z" fill="black"/>
<path d="M342.917 328V327.568C342.917 327.131 343.002 326.731 343.173 326.368C343.354 325.995 343.594 325.653 343.893 325.344C344.202 325.035 344.543 324.736 344.917 324.448C345.29 324.16 345.674 323.877 346.069 323.6C346.634 323.216 347.146 322.837 347.605 322.464C348.074 322.08 348.447 321.675 348.725 321.248C349.013 320.811 349.157 320.325 349.157 319.792C349.157 319.397 349.066 319.056 348.885 318.768C348.703 318.469 348.437 318.24 348.085 318.08C347.743 317.909 347.317 317.824 346.805 317.824C346.165 317.824 345.658 317.936 345.285 318.16C344.911 318.384 344.639 318.672 344.469 319.024C344.309 319.376 344.229 319.749 344.229 320.144V320.8H343.093C343.082 320.747 343.071 320.667 343.061 320.56C343.05 320.443 343.045 320.309 343.045 320.16C343.045 319.371 343.221 318.736 343.573 318.256C343.925 317.765 344.394 317.408 344.981 317.184C345.567 316.949 346.202 316.832 346.885 316.832C347.429 316.832 347.914 316.901 348.341 317.04C348.767 317.179 349.13 317.381 349.429 317.648C349.727 317.915 349.957 318.235 350.117 318.608C350.277 318.981 350.357 319.387 350.357 319.824C350.357 320.336 350.266 320.8 350.085 321.216C349.914 321.621 349.669 322 349.349 322.352C349.029 322.704 348.655 323.045 348.229 323.376C347.802 323.707 347.343 324.037 346.853 324.368C346.469 324.624 346.09 324.896 345.717 325.184C345.343 325.472 345.023 325.765 344.757 326.064C344.49 326.352 344.33 326.635 344.277 326.912H350.421V328H342.917ZM356.812 328V325.2H351.58V324.208C352.039 323.408 352.455 322.613 352.828 321.824C353.202 321.035 353.532 320.229 353.82 319.408C354.108 318.576 354.343 317.717 354.524 316.832H355.756C355.618 317.429 355.447 318.037 355.244 318.656C355.052 319.275 354.834 319.877 354.588 320.464C354.354 321.051 354.119 321.595 353.884 322.096C353.65 322.597 353.431 323.035 353.228 323.408C353.026 323.771 352.86 324.037 352.732 324.208H356.812V320.384C356.866 320.235 356.919 320.075 356.972 319.904C357.026 319.733 357.074 319.563 357.116 319.392C357.17 319.211 357.218 319.045 357.26 318.896C357.303 318.747 357.34 318.603 357.372 318.464H357.964V324.208H359.468V325.2H357.964V328H356.812Z" fill="black"/>
<path d="M351.453 379H352.516V367.727H351.453L348.445 369.812V370.938L351.359 368.914H351.453V379Z" fill="black" fill-opacity="0.25"/>
<path d="M299.493 53.9855C299.394 53.9867 299.297 53.9679 299.206 53.9305C299.116 53.893 299.035 53.8377 298.968 53.7681L292.225 47.2464C291.925 46.9565 291.925 46.5072 292.225 46.2174C292.524 45.9275 292.989 45.9275 293.289 46.2174L299.507 52.2319L305.711 46.2319C306.011 45.942 306.476 45.942 306.775 46.2319C307.075 46.5217 307.075 46.971 306.775 47.2609L300.032 53.7826C299.882 53.9275 299.687 54 299.507 54L299.493 53.9855Z" fill="black" fill-opacity="0.4"/>
<path d="M73.9404 120V109.024H75.8604L78.7244 116.624C78.7884 116.805 78.8524 117.003 78.9164 117.216C78.9804 117.419 79.039 117.616 79.0924 117.808C79.1564 117.989 79.2044 118.144 79.2364 118.272H79.3324C79.375 118.123 79.4284 117.947 79.4924 117.744C79.5564 117.541 79.615 117.344 79.6684 117.152C79.7324 116.949 79.791 116.773 79.8444 116.624L82.7084 109.024H84.6124V120H83.3484V113.168C83.3484 112.901 83.3537 112.603 83.3644 112.272C83.375 111.931 83.3804 111.6 83.3804 111.28C83.391 110.96 83.3964 110.715 83.3964 110.544H83.2844C83.2417 110.704 83.183 110.896 83.1084 111.12C83.0444 111.333 82.975 111.552 82.9004 111.776C82.8364 112 82.7724 112.208 82.7084 112.4L79.7644 120H78.7404L75.8124 112.4C75.7484 112.229 75.6844 112.043 75.6204 111.84C75.5564 111.637 75.4924 111.424 75.4284 111.2C75.3644 110.976 75.3004 110.757 75.2364 110.544H75.1244C75.135 110.757 75.1404 111.024 75.1404 111.344C75.151 111.664 75.1564 111.984 75.1564 112.304C75.167 112.624 75.1724 112.912 75.1724 113.168V120H73.9404ZM92.3825 120.192C91.2518 120.192 90.2758 119.984 89.4545 119.568C88.6438 119.141 88.0198 118.507 87.5825 117.664C87.1452 116.821 86.9265 115.771 86.9265 114.512C86.9265 113.243 87.1452 112.192 87.5825 111.36C88.0198 110.517 88.6438 109.888 89.4545 109.472C90.2758 109.045 91.2518 108.832 92.3825 108.832C93.5238 108.832 94.4998 109.045 95.3105 109.472C96.1318 109.888 96.7558 110.517 97.1825 111.36C97.6198 112.192 97.8385 113.243 97.8385 114.512C97.8385 115.771 97.6198 116.821 97.1825 117.664C96.7558 118.507 96.1318 119.141 95.3105 119.568C94.4998 119.984 93.5238 120.192 92.3825 120.192ZM92.3825 119.104C93.0118 119.104 93.5825 119.024 94.0945 118.864C94.6065 118.693 95.0438 118.427 95.4065 118.064C95.7692 117.701 96.0465 117.243 96.2385 116.688C96.4412 116.133 96.5425 115.467 96.5425 114.688V114.352C96.5425 113.563 96.4412 112.891 96.2385 112.336C96.0465 111.781 95.7692 111.323 95.4065 110.96C95.0438 110.597 94.6065 110.336 94.0945 110.176C93.5825 110.005 93.0118 109.92 92.3825 109.92C91.7532 109.92 91.1825 110.005 90.6705 110.176C90.1692 110.336 89.7372 110.597 89.3745 110.96C89.0118 111.323 88.7292 111.781 88.5265 112.336C88.3345 112.891 88.2385 113.563 88.2385 114.352V114.688C88.2385 115.467 88.3345 116.133 88.5265 116.688C88.7292 117.243 89.0118 117.701 89.3745 118.064C89.7372 118.427 90.1692 118.693 90.6705 118.864C91.1825 119.024 91.7532 119.104 92.3825 119.104ZM100.175 120V109.024H101.407L107.023 116.608C107.087 116.683 107.161 116.784 107.247 116.912C107.343 117.04 107.433 117.173 107.519 117.312C107.615 117.44 107.695 117.557 107.759 117.664H107.839C107.839 117.483 107.839 117.307 107.839 117.136C107.839 116.955 107.839 116.779 107.839 116.608V109.024H109.071V120H107.967L102.239 112.256C102.164 112.149 102.047 111.984 101.887 111.76C101.727 111.525 101.588 111.328 101.471 111.168H101.407C101.407 111.349 101.407 111.531 101.407 111.712C101.407 111.883 101.407 112.064 101.407 112.256V120H100.175Z" fill="black" fill-opacity="0.4"/>
<path d="M131.542 120V110.128H127.654V109.024H136.726V110.128H132.806V120H131.542ZM142.817 120.192C141.899 120.192 141.11 120.048 140.449 119.76C139.798 119.461 139.297 118.987 138.945 118.336C138.593 117.685 138.417 116.843 138.417 115.808V109.024H139.681V116.064C139.681 117.077 139.953 117.835 140.497 118.336C141.051 118.837 141.825 119.088 142.817 119.088C143.83 119.088 144.619 118.837 145.185 118.336C145.761 117.835 146.049 117.077 146.049 116.064V109.024H147.297V115.808C147.297 116.843 147.115 117.685 146.753 118.336C146.401 118.987 145.889 119.461 145.217 119.76C144.555 120.048 143.755 120.192 142.817 120.192ZM150.198 120V109.024H158.598V110.112H151.462V113.824H157.894V114.928H151.462V118.912H158.694V120H150.198Z" fill="black" fill-opacity="0.4"/>
<path d="M179.694 120L176.606 109.024H177.95L179.998 116.592C180.03 116.72 180.073 116.901 180.126 117.136C180.19 117.371 180.249 117.611 180.302 117.856C180.366 118.101 180.42 118.325 180.462 118.528H180.59C180.622 118.379 180.654 118.213 180.686 118.032C180.729 117.851 180.766 117.669 180.798 117.488C180.841 117.307 180.878 117.136 180.91 116.976C180.953 116.816 180.985 116.688 181.006 116.592L182.894 109.024H184.542L186.43 116.592C186.473 116.72 186.521 116.901 186.574 117.136C186.628 117.371 186.681 117.611 186.734 117.856C186.798 118.101 186.846 118.325 186.878 118.528H187.006C187.038 118.379 187.076 118.213 187.118 118.032C187.161 117.851 187.204 117.675 187.246 117.504C187.289 117.323 187.326 117.152 187.358 116.992C187.401 116.821 187.438 116.688 187.47 116.592L189.518 109.024H190.734L187.646 120H186.078L184.126 112.432C184.084 112.272 184.036 112.075 183.982 111.84C183.94 111.605 183.892 111.365 183.838 111.12C183.796 110.864 183.758 110.64 183.726 110.448H183.614C183.582 110.64 183.54 110.864 183.486 111.12C183.444 111.365 183.396 111.605 183.342 111.84C183.289 112.075 183.241 112.272 183.198 112.432L181.294 120H179.694ZM192.401 120V109.024H200.801V110.112H193.665V113.824H200.097V114.928H193.665V118.912H200.897V120H192.401ZM203.261 120V109.024H207.213C208.386 109.024 209.378 109.216 210.189 109.6C211.01 109.973 211.634 110.565 212.061 111.376C212.498 112.176 212.717 113.221 212.717 114.512C212.717 115.781 212.498 116.821 212.061 117.632C211.634 118.443 211.01 119.04 210.189 119.424C209.378 119.808 208.386 120 207.213 120H203.261ZM204.525 118.912H207.165C207.815 118.912 208.402 118.837 208.925 118.688C209.447 118.528 209.895 118.283 210.269 117.952C210.642 117.611 210.925 117.173 211.117 116.64C211.309 116.107 211.405 115.461 211.405 114.704V114.368C211.405 113.589 211.309 112.933 211.117 112.4C210.925 111.856 210.642 111.419 210.269 111.088C209.906 110.747 209.463 110.501 208.941 110.352C208.418 110.192 207.826 110.112 207.165 110.112H204.525V118.912Z" fill="black" fill-opacity="0.4"/>
<path d="M234.574 120V110.128H230.686V109.024H239.758V110.128H235.838V120H234.574ZM241.464 120V109.024H242.728V113.84H249.096V109.024H250.36V120H249.096V114.944H242.728V120H241.464ZM257.645 120.192C256.727 120.192 255.938 120.048 255.277 119.76C254.626 119.461 254.125 118.987 253.773 118.336C253.421 117.685 253.245 116.843 253.245 115.808V109.024H254.509V116.064C254.509 117.077 254.781 117.835 255.325 118.336C255.879 118.837 256.653 119.088 257.645 119.088C258.658 119.088 259.447 118.837 260.013 118.336C260.589 117.835 260.877 117.077 260.877 116.064V109.024H262.125V115.808C262.125 116.843 261.943 117.685 261.581 118.336C261.229 118.987 260.717 119.461 260.045 119.76C259.383 120.048 258.583 120.192 257.645 120.192Z" fill="black" fill-opacity="0.4"/>
<path d="M287.604 120V109.024H295.332V110.112H288.868V113.904H294.756V114.992H288.868V120H287.604ZM297.433 120V109.024H303.193C303.918 109.024 304.515 109.163 304.985 109.44C305.465 109.707 305.822 110.075 306.057 110.544C306.302 111.013 306.425 111.547 306.425 112.144C306.425 112.923 306.243 113.584 305.881 114.128C305.529 114.661 305.059 115.04 304.473 115.264L306.809 120H305.417L303.225 115.488H298.697V120H297.433ZM298.697 114.4H303.065C303.715 114.4 304.227 114.203 304.601 113.808C304.974 113.403 305.161 112.848 305.161 112.144C305.161 111.717 305.081 111.355 304.921 111.056C304.761 110.757 304.526 110.528 304.217 110.368C303.907 110.197 303.523 110.112 303.065 110.112H298.697V114.4ZM309.151 120V109.024H310.415V120H309.151Z" fill="black" fill-opacity="0.4"/>
<path d="M341.62 120.192C341.033 120.192 340.463 120.139 339.908 120.032C339.353 119.925 338.863 119.744 338.436 119.488C338.009 119.232 337.673 118.896 337.428 118.48C337.183 118.064 337.06 117.547 337.06 116.928C337.06 116.875 337.06 116.827 337.06 116.784C337.06 116.731 337.065 116.677 337.076 116.624H338.34C338.34 116.667 338.335 116.725 338.324 116.8C338.324 116.875 338.324 116.939 338.324 116.992C338.324 117.461 338.463 117.856 338.74 118.176C339.028 118.485 339.412 118.72 339.892 118.88C340.383 119.029 340.932 119.104 341.54 119.104C341.743 119.104 341.983 119.093 342.26 119.072C342.548 119.04 342.836 118.987 343.124 118.912C343.423 118.827 343.695 118.715 343.94 118.576C344.185 118.427 344.383 118.24 344.532 118.016C344.692 117.781 344.772 117.493 344.772 117.152C344.772 116.757 344.665 116.432 344.452 116.176C344.239 115.92 343.956 115.712 343.604 115.552C343.263 115.381 342.868 115.232 342.42 115.104C341.972 114.976 341.513 114.853 341.044 114.736C340.575 114.619 340.116 114.485 339.668 114.336C339.231 114.187 338.836 114 338.484 113.776C338.132 113.552 337.849 113.275 337.636 112.944C337.433 112.603 337.332 112.187 337.332 111.696C337.332 111.269 337.417 110.88 337.588 110.528C337.759 110.176 338.02 109.877 338.372 109.632C338.724 109.376 339.172 109.179 339.716 109.04C340.26 108.901 340.905 108.832 341.652 108.832C342.217 108.832 342.745 108.891 343.236 109.008C343.727 109.125 344.159 109.312 344.532 109.568C344.905 109.813 345.193 110.128 345.396 110.512C345.609 110.885 345.716 111.339 345.716 111.872V112.064H344.468V111.792C344.468 111.397 344.345 111.067 344.1 110.8C343.855 110.523 343.524 110.309 343.108 110.16C342.703 110 342.239 109.92 341.716 109.92C341.001 109.92 340.415 109.995 339.956 110.144C339.497 110.283 339.156 110.48 338.932 110.736C338.708 110.981 338.596 111.259 338.596 111.568C338.596 111.931 338.703 112.235 338.916 112.48C339.129 112.715 339.412 112.912 339.764 113.072C340.116 113.221 340.511 113.36 340.948 113.488C341.396 113.605 341.855 113.723 342.324 113.84C342.793 113.957 343.247 114.096 343.684 114.256C344.132 114.405 344.532 114.597 344.884 114.832C345.247 115.056 345.529 115.339 345.732 115.68C345.945 116.021 346.052 116.443 346.052 116.944C346.052 117.701 345.86 118.32 345.476 118.8C345.103 119.28 344.585 119.632 343.924 119.856C343.263 120.08 342.495 120.192 341.62 120.192ZM347.089 120L351.457 109.024H353.153L357.537 120H356.177L355.025 117.104H349.521L348.385 120H347.089ZM349.953 116.016H354.593L353.153 112.352C353.121 112.267 353.073 112.139 353.009 111.968C352.945 111.797 352.87 111.605 352.785 111.392C352.71 111.168 352.63 110.944 352.545 110.72C352.47 110.496 352.396 110.293 352.321 110.112H352.209C352.145 110.315 352.06 110.555 351.953 110.832C351.857 111.109 351.756 111.387 351.649 111.664C351.553 111.931 351.468 112.16 351.393 112.352L349.953 116.016ZM360.402 120V110.128H356.514V109.024H365.586V110.128H361.666V120H360.402Z" fill="black" fill-opacity="0.4"/>
<path d="M20.272 63V40.6H27.536C30.16 40.6 32.3147 41.0587 34 41.976C35.7067 42.8933 36.9653 44.1947 37.776 45.88C38.608 47.544 39.024 49.528 39.024 51.832C39.024 54.1147 38.608 56.0987 37.776 57.784C36.9653 59.448 35.7067 60.7387 34 61.656C32.3147 62.552 30.16 63 27.536 63H20.272ZM23.664 60.12H27.408C29.4347 60.12 31.0347 59.7893 32.208 59.128C33.4027 58.4667 34.256 57.5173 34.768 56.28C35.3013 55.0427 35.568 53.56 35.568 51.832C35.568 50.104 35.3013 48.6107 34.768 47.352C34.256 46.0933 33.4027 45.1333 32.208 44.472C31.0347 43.7893 29.4347 43.448 27.408 43.448H23.664V60.12ZM50.068 63.384C48.5107 63.384 47.124 63.0427 45.908 62.36C44.7133 61.656 43.7747 60.6853 43.092 59.448C42.4093 58.2107 42.068 56.7707 42.068 55.128C42.068 53.464 42.3987 52.0027 43.06 50.744C43.7427 49.4853 44.6813 48.504 45.876 47.8C47.092 47.096 48.5 46.744 50.1 46.744C51.6573 46.744 53.012 47.096 54.164 47.8C55.316 48.4827 56.212 49.4 56.852 50.552C57.492 51.704 57.812 52.9733 57.812 54.36C57.812 54.5733 57.8013 54.808 57.78 55.064C57.78 55.2987 57.7693 55.5653 57.748 55.864H45.396C45.5027 57.4 46.004 58.5733 46.9 59.384C47.8173 60.1733 48.8733 60.568 50.068 60.568C51.028 60.568 51.828 60.3547 52.468 59.928C53.1293 59.48 53.62 58.8827 53.94 58.136H57.332C56.9053 59.6293 56.052 60.8773 54.772 61.88C53.5133 62.8827 51.9453 63.384 50.068 63.384ZM50.068 49.528C48.9373 49.528 47.9347 49.8693 47.06 50.552C46.1853 51.2133 45.652 52.216 45.46 53.56H54.42C54.356 52.3227 53.9187 51.3413 53.108 50.616C52.2973 49.8907 51.284 49.528 50.068 49.528ZM67.6675 63.384C65.6622 63.384 64.0088 62.8933 62.7075 61.912C61.4062 60.9307 60.6595 59.6293 60.4675 58.008H63.8915C64.0622 58.7333 64.4675 59.3627 65.1075 59.896C65.7475 60.408 66.5902 60.664 67.6355 60.664C68.6595 60.664 69.4062 60.4507 69.8755 60.024C70.3448 59.5973 70.5795 59.1067 70.5795 58.552C70.5795 57.7413 70.2488 57.1973 69.5875 56.92C68.9475 56.6213 68.0515 56.3547 66.8995 56.12C66.0035 55.928 65.1075 55.672 64.2115 55.352C63.3368 55.032 62.6008 54.584 62.0035 54.008C61.4275 53.4107 61.1395 52.6107 61.1395 51.608C61.1395 50.2213 61.6728 49.0693 62.7395 48.152C63.8062 47.2133 65.2995 46.744 67.2195 46.744C68.9902 46.744 70.4195 47.1707 71.5075 48.024C72.6168 48.8773 73.2675 50.0827 73.4595 51.64H70.1955C70.0888 50.9573 69.7688 50.424 69.2355 50.04C68.7235 49.656 68.0302 49.464 67.1555 49.464C66.3022 49.464 65.6408 49.6453 65.1715 50.008C64.7022 50.3493 64.4675 50.7973 64.4675 51.352C64.4675 51.9067 64.7875 52.344 65.4275 52.664C66.0888 52.984 66.9528 53.272 68.0195 53.528C69.0862 53.7627 70.0675 54.04 70.9635 54.36C71.8808 54.6587 72.6168 55.1067 73.1715 55.704C73.7262 56.3013 74.0035 57.176 74.0035 58.328C74.0248 59.7787 73.4595 60.984 72.3075 61.944C71.1768 62.904 69.6302 63.384 67.6675 63.384ZM85.1305 63.384C83.5732 63.384 82.1865 63.0427 80.9705 62.36C79.7758 61.656 78.8372 60.6853 78.1545 59.448C77.4718 58.2107 77.1305 56.7707 77.1305 55.128C77.1305 53.464 77.4612 52.0027 78.1225 50.744C78.8052 49.4853 79.7438 48.504 80.9385 47.8C82.1545 47.096 83.5625 46.744 85.1625 46.744C86.7198 46.744 88.0745 47.096 89.2265 47.8C90.3785 48.4827 91.2745 49.4 91.9145 50.552C92.5545 51.704 92.8745 52.9733 92.8745 54.36C92.8745 54.5733 92.8638 54.808 92.8425 55.064C92.8425 55.2987 92.8318 55.5653 92.8105 55.864H80.4585C80.5652 57.4 81.0665 58.5733 81.9625 59.384C82.8798 60.1733 83.9358 60.568 85.1305 60.568C86.0905 60.568 86.8905 60.3547 87.5305 59.928C88.1918 59.48 88.6825 58.8827 89.0025 58.136H92.3945C91.9678 59.6293 91.1145 60.8773 89.8345 61.88C88.5758 62.8827 87.0078 63.384 85.1305 63.384ZM85.1305 49.528C83.9998 49.528 82.9972 49.8693 82.1225 50.552C81.2478 51.2133 80.7145 52.216 80.5225 53.56H89.4825C89.4185 52.3227 88.9812 51.3413 88.1705 50.616C87.3598 49.8907 86.3465 49.528 85.1305 49.528ZM96.394 63V47.128H99.402L99.69 49.368C100.202 48.5573 100.874 47.9173 101.706 47.448C102.559 46.9787 103.541 46.744 104.65 46.744C107.167 46.744 108.917 47.736 109.898 49.72C110.474 48.8027 111.242 48.0773 112.202 47.544C113.183 47.0107 114.239 46.744 115.37 46.744C117.354 46.744 118.911 47.3413 120.042 48.536C121.173 49.7307 121.738 51.512 121.738 53.88V63H118.346V54.232C118.346 51.16 117.173 49.624 114.826 49.624C113.631 49.624 112.65 50.072 111.882 50.968C111.135 51.864 110.762 53.144 110.762 54.808V63H107.37V54.232C107.37 51.16 106.186 49.624 103.818 49.624C102.645 49.624 101.674 50.072 100.906 50.968C100.159 51.864 99.786 53.144 99.786 54.808V63H96.394ZM134.635 63.384C133.397 63.384 132.299 63.1387 131.339 62.648C130.4 62.1573 129.653 61.464 129.099 60.568L128.747 63H125.707V39.96H129.099V49.592C129.611 48.8453 130.315 48.184 131.211 47.608C132.107 47.032 133.259 46.744 134.667 46.744C136.203 46.744 137.557 47.1067 138.731 47.832C139.904 48.5573 140.821 49.5493 141.483 50.808C142.165 52.0667 142.507 53.496 142.507 55.096C142.507 56.696 142.165 58.1253 141.483 59.384C140.821 60.6213 139.904 61.6027 138.731 62.328C137.557 63.032 136.192 63.384 134.635 63.384ZM134.059 60.44C135.509 60.44 136.704 59.9493 137.643 58.968C138.581 57.9653 139.051 56.664 139.051 55.064C139.051 54.0187 138.837 53.0907 138.411 52.28C137.984 51.4693 137.397 50.84 136.651 50.392C135.904 49.9227 135.04 49.688 134.059 49.688C132.608 49.688 131.413 50.1893 130.475 51.192C129.557 52.1947 129.099 53.4853 129.099 55.064C129.099 56.664 129.557 57.9653 130.475 58.968C131.413 59.9493 132.608 60.44 134.059 60.44ZM153.599 63.384C152.042 63.384 150.655 63.0427 149.439 62.36C148.245 61.656 147.306 60.6853 146.623 59.448C145.941 58.2107 145.599 56.7707 145.599 55.128C145.599 53.464 145.93 52.0027 146.591 50.744C147.274 49.4853 148.213 48.504 149.407 47.8C150.623 47.096 152.031 46.744 153.631 46.744C155.189 46.744 156.543 47.096 157.695 47.8C158.847 48.4827 159.743 49.4 160.383 50.552C161.023 51.704 161.343 52.9733 161.343 54.36C161.343 54.5733 161.333 54.808 161.311 55.064C161.311 55.2987 161.301 55.5653 161.279 55.864H148.927C149.034 57.4 149.535 58.5733 150.431 59.384C151.349 60.1733 152.405 60.568 153.599 60.568C154.559 60.568 155.359 60.3547 155.999 59.928C156.661 59.48 157.151 58.8827 157.471 58.136H160.863C160.437 59.6293 159.583 60.8773 158.303 61.88C157.045 62.8827 155.477 63.384 153.599 63.384ZM153.599 49.528C152.469 49.528 151.466 49.8693 150.591 50.552C149.717 51.2133 149.183 52.216 148.991 53.56H157.951C157.887 52.3227 157.45 51.3413 156.639 50.616C155.829 49.8907 154.815 49.528 153.599 49.528ZM164.863 63V47.128H167.903L168.191 50.136C168.745 49.0907 169.513 48.2693 170.495 47.672C171.497 47.0533 172.703 46.744 174.111 46.744V50.296H173.183C172.244 50.296 171.401 50.456 170.655 50.776C169.929 51.0747 169.343 51.5973 168.895 52.344C168.468 53.0693 168.255 54.0827 168.255 55.384V63H164.863ZM174.037 66.776L175.893 59.224H179.253L176.309 66.776H174.037ZM190.199 63V60.568C191.65 59.416 193.036 58.2533 194.359 57.08C195.682 55.9067 196.855 54.7547 197.879 53.624C198.924 52.472 199.746 51.352 200.343 50.264C200.94 49.1547 201.239 48.088 201.239 47.064C201.239 46.3813 201.122 45.7413 200.887 45.144C200.652 44.5253 200.268 44.0347 199.735 43.672C199.202 43.288 198.487 43.096 197.591 43.096C196.247 43.096 195.234 43.5227 194.551 44.376C193.89 45.2293 193.57 46.2533 193.591 47.448H190.295C190.316 45.8693 190.647 44.5467 191.287 43.48C191.948 42.4133 192.823 41.6027 193.911 41.048C195.02 40.4933 196.268 40.216 197.655 40.216C199.767 40.216 201.452 40.8133 202.711 42.008C203.991 43.1813 204.631 44.824 204.631 46.936C204.631 48.1947 204.322 49.4427 203.703 50.68C203.106 51.9173 202.316 53.112 201.335 54.264C200.375 55.3947 199.34 56.4613 198.231 57.464C197.122 58.4667 196.066 59.3733 195.063 60.184H205.303V63H190.199ZM217.67 63.384C215.643 63.384 213.894 62.904 212.422 61.944C210.971 60.9627 209.851 59.608 209.062 57.88C208.294 56.1307 207.91 54.104 207.91 51.8C207.91 49.496 208.294 47.48 209.062 45.752C209.851 44.0027 210.971 42.648 212.422 41.688C213.894 40.7067 215.643 40.216 217.67 40.216C219.696 40.216 221.435 40.7067 222.885 41.688C224.336 42.648 225.446 44.0027 226.214 45.752C227.003 47.48 227.398 49.496 227.398 51.8C227.398 54.104 227.003 56.1307 226.214 57.88C225.446 59.608 224.336 60.9627 222.885 61.944C221.435 62.904 219.696 63.384 217.67 63.384ZM217.67 60.344C218.886 60.344 219.963 60.0027 220.902 59.32C221.862 58.6373 222.608 57.656 223.142 56.376C223.675 55.096 223.942 53.5707 223.942 51.8C223.942 50.0293 223.675 48.504 223.142 47.224C222.608 45.944 221.862 44.9627 220.902 44.28C219.963 43.5973 218.886 43.256 217.67 43.256C216.432 43.256 215.344 43.5973 214.406 44.28C213.467 44.9627 212.731 45.944 212.198 47.224C211.664 48.504 211.398 50.0293 211.398 51.8C211.398 53.5707 211.664 55.096 212.198 56.376C212.731 57.656 213.467 58.6373 214.406 59.32C215.344 60.0027 216.432 60.344 217.67 60.344ZM230.48 63V60.568C231.931 59.416 233.318 58.2533 234.64 57.08C235.963 55.9067 237.136 54.7547 238.16 53.624C239.206 52.472 240.027 51.352 240.624 50.264C241.222 49.1547 241.52 48.088 241.52 47.064C241.52 46.3813 241.403 45.7413 241.168 45.144C240.934 44.5253 240.55 44.0347 240.016 43.672C239.483 43.288 238.768 43.096 237.872 43.096C236.528 43.096 235.515 43.5227 234.832 44.376C234.171 45.2293 233.851 46.2533 233.872 47.448H230.576C230.598 45.8693 230.928 44.5467 231.568 43.48C232.23 42.4133 233.104 41.6027 234.192 41.048C235.302 40.4933 236.55 40.216 237.936 40.216C240.048 40.216 241.734 40.8133 242.992 42.008C244.272 43.1813 244.912 44.824 244.912 46.936C244.912 48.1947 244.603 49.4427 243.984 50.68C243.387 51.9173 242.598 53.112 241.616 54.264C240.656 55.3947 239.622 56.4613 238.512 57.464C237.403 58.4667 236.347 59.3733 235.344 60.184H245.584V63H230.48ZM259.043 63V58.52H247.811V55.832L258.499 40.6H262.403V55.576H265.539V58.52H262.403V63H259.043ZM251.491 55.576H259.235V44.344L251.491 55.576Z" fill="black"/>
<path d="M135.198 327V326.568C135.198 326.131 135.283 325.731 135.454 325.368C135.635 324.995 135.875 324.653 136.174 324.344C136.483 324.035 136.825 323.736 137.198 323.448C137.571 323.16 137.955 322.877 138.35 322.6C138.915 322.216 139.427 321.837 139.886 321.464C140.355 321.08 140.729 320.675 141.006 320.248C141.294 319.811 141.438 319.325 141.438 318.792C141.438 318.397 141.347 318.056 141.166 317.768C140.985 317.469 140.718 317.24 140.366 317.08C140.025 316.909 139.598 316.824 139.086 316.824C138.446 316.824 137.939 316.936 137.566 317.16C137.193 317.384 136.921 317.672 136.75 318.024C136.59 318.376 136.51 318.749 136.51 319.144V319.8H135.374C135.363 319.747 135.353 319.667 135.342 319.56C135.331 319.443 135.326 319.309 135.326 319.16C135.326 318.371 135.502 317.736 135.854 317.256C136.206 316.765 136.675 316.408 137.262 316.184C137.849 315.949 138.483 315.832 139.166 315.832C139.71 315.832 140.195 315.901 140.622 316.04C141.049 316.179 141.411 316.381 141.71 316.648C142.009 316.915 142.238 317.235 142.398 317.608C142.558 317.981 142.638 318.387 142.638 318.824C142.638 319.336 142.547 319.8 142.366 320.216C142.195 320.621 141.95 321 141.63 321.352C141.31 321.704 140.937 322.045 140.51 322.376C140.083 322.707 139.625 323.037 139.134 323.368C138.75 323.624 138.371 323.896 137.998 324.184C137.625 324.472 137.305 324.765 137.038 325.064C136.771 325.352 136.611 325.635 136.558 325.912H142.702V327H135.198ZM148.006 327.192C147.419 327.192 146.886 327.101 146.406 326.92C145.936 326.739 145.536 326.435 145.206 326.008C144.886 325.581 144.635 325.005 144.454 324.28C144.283 323.544 144.198 322.621 144.198 321.512C144.198 320.403 144.283 319.485 144.454 318.76C144.635 318.024 144.886 317.443 145.206 317.016C145.536 316.589 145.936 316.285 146.406 316.104C146.886 315.923 147.419 315.832 148.006 315.832C148.603 315.832 149.136 315.923 149.606 316.104C150.075 316.285 150.47 316.589 150.79 317.016C151.12 317.443 151.371 318.024 151.542 318.76C151.723 319.485 151.814 320.403 151.814 321.512C151.814 322.621 151.723 323.544 151.542 324.28C151.371 325.005 151.12 325.581 150.79 326.008C150.47 326.435 150.075 326.739 149.606 326.92C149.136 327.101 148.603 327.192 148.006 327.192ZM148.006 326.216C148.678 326.216 149.195 326.051 149.558 325.72C149.931 325.389 150.198 324.904 150.358 324.264C150.518 323.613 150.598 322.813 150.598 321.864V321.176C150.598 320.216 150.518 319.416 150.358 318.776C150.198 318.125 149.931 317.635 149.558 317.304C149.195 316.973 148.678 316.808 148.006 316.808C147.344 316.808 146.822 316.973 146.438 317.304C146.064 317.635 145.798 318.12 145.638 318.76C145.488 319.4 145.414 320.2 145.414 321.16V321.848C145.414 322.797 145.488 323.597 145.638 324.248C145.798 324.899 146.064 325.389 146.438 325.72C146.822 326.051 147.344 326.216 148.006 326.216Z" fill="black"/>
<path d="M295.276 172V171.568C295.276 171.131 295.362 170.731 295.532 170.368C295.714 169.995 295.954 169.653 296.252 169.344C296.562 169.035 296.903 168.736 297.276 168.448C297.65 168.16 298.034 167.877 298.428 167.6C298.994 167.216 299.506 166.837 299.964 166.464C300.434 166.08 300.807 165.675 301.084 165.248C301.372 164.811 301.516 164.325 301.516 163.792C301.516 163.397 301.426 163.056 301.244 162.768C301.063 162.469 300.796 162.24 300.444 162.08C300.103 161.909 299.676 161.824 299.164 161.824C298.524 161.824 298.018 161.936 297.644 162.16C297.271 162.384 296.999 162.672 296.828 163.024C296.668 163.376 296.588 163.749 296.588 164.144V164.8H295.452C295.442 164.747 295.431 164.667 295.42 164.56C295.41 164.443 295.404 164.309 295.404 164.16C295.404 163.371 295.58 162.736 295.932 162.256C296.284 161.765 296.754 161.408 297.34 161.184C297.927 160.949 298.562 160.832 299.244 160.832C299.788 160.832 300.274 160.901 300.7 161.04C301.127 161.179 301.49 161.381 301.788 161.648C302.087 161.915 302.316 162.235 302.476 162.608C302.636 162.981 302.716 163.387 302.716 163.824C302.716 164.336 302.626 164.8 302.444 165.216C302.274 165.621 302.028 166 301.708 166.352C301.388 166.704 301.015 167.045 300.588 167.376C300.162 167.707 299.703 168.037 299.212 168.368C298.828 168.624 298.45 168.896 298.076 169.184C297.703 169.472 297.383 169.765 297.116 170.064C296.85 170.352 296.69 170.635 296.636 170.912H302.78V172H295.276Z" fill="black"/>
</svg>
