<svg width="22" height="22" viewBox="0 0 22 22" fill="none" xmlns="http://www.w3.org/2000/svg">
<path d="M1.5 8H20.5M12 12H16M12 16H14M6 5H6.009M10 5H10.009M8 8V20.5M1.5 11C1.5 6.522 1.5 4.282 2.891 2.891C4.282 1.5 6.521 1.5 11 1.5C15.478 1.5 17.718 1.5 19.109 2.891C20.5 4.282 20.5 6.521 20.5 11C20.5 15.478 20.5 17.718 19.109 19.109C17.718 20.5 15.479 20.5 11 20.5C6.522 20.5 4.282 20.5 2.891 19.109C1.5 17.718 1.5 15.479 1.5 11Z" stroke="white" stroke-width="1.5" stroke-linecap="round" stroke-linejoin="round"/>
</svg>
