<svg width="28" height="27" viewBox="0 0 28 27" fill="none" xmlns="http://www.w3.org/2000/svg">
<path d="M4.813 0.406006L3.405 1.81201L5.5 3.90601L6.906 2.50001L4.813 0.406006ZM23.188 0.406006L21.093 2.50001L22.5 3.90601L24.594 1.81301L23.188 0.406006ZM14 1.03001C13.67 1.03401 13.336 1.05301 13 1.09401C12.99 1.09401 12.98 1.09201 12.97 1.09401C8.914 1.55901 5.686 4.83601 5.125 8.87401C4.677 12.124 6.017 15.071 8.25 16.969C9.16341 17.7485 9.78123 18.8183 10 19.999V25.999H12.28C12.628 26.596 13.263 26.999 14 26.999C14.737 26.999 15.372 26.596 15.72 25.999H18V21.999H18.094V20.811C18.094 19.345 18.856 17.867 20.094 16.718C21.75 15.06 23 12.705 23 10C23 5.06001 18.934 0.984006 14 1.03001ZM14 3.03001C17.865 2.97601 21 6.14001 21 10C21 12.094 20.03 13.938 18.687 15.28L18.719 15.312C17.3844 16.5427 16.5214 18.2008 16.279 20H11.905C11.685 18.286 10.95 16.627 9.561 15.437C7.794 13.937 6.741 11.677 7.093 9.12501C7.53 5.97501 10.086 3.44201 13.218 3.09501C13.4766 3.05895 13.737 3.03759 13.998 3.03101L14 3.03001ZM0 10V12H3V10H0ZM25 10V12H28V10H25ZM5.5 18.094L3.406 20.187L4.813 21.594L6.905 19.5L5.5 18.094ZM22.5 18.094L21.094 19.5L23.187 21.594L24.594 20.187L22.5 18.094ZM12 22H16V24H12V22Z" fill="url(#paint0_linear_307_120)"/>
<defs>
<linearGradient id="paint0_linear_307_120" x1="14" y1="0.406006" x2="14" y2="26.999" gradientUnits="userSpaceOnUse">
<stop stop-color="white"/>
<stop offset="1" stop-color="#222222"/>
</linearGradient>
</defs>
</svg>
